<svg xmlns="http://www.w3.org/2000/svg" xmlns:xlink="http://www.w3.org/1999/xlink" width="400" zoomAndPan="magnify" viewBox="0 0 300 449.999984" height="600" preserveAspectRatio="xMidYMid meet" version="1.0"><defs><clipPath id="408cd234ae"><path d="M 105 104.558594 L 195 104.558594 L 195 194.558594 L 105 194.558594 Z M 105 104.558594 " clip-rule="nonzero"/></clipPath><clipPath id="83f214224b"><path d="M 150 104.558594 C 125.148438 104.558594 105 124.707031 105 149.558594 C 105 174.410156 125.148438 194.558594 150 194.558594 C 174.851562 194.558594 195 174.410156 195 149.558594 C 195 124.707031 174.851562 104.558594 150 104.558594 Z M 150 104.558594 " clip-rule="nonzero"/></clipPath><clipPath id="bb991d6d6c"><path d="M 0 0.558594 L 90 0.558594 L 90 90.558594 L 0 90.558594 Z M 0 0.558594 " clip-rule="nonzero"/></clipPath><clipPath id="9fb01b98f2"><path d="M 45 0.558594 C 20.148438 0.558594 0 20.707031 0 45.558594 C 0 70.410156 20.148438 90.558594 45 90.558594 C 69.851562 90.558594 90 70.410156 90 45.558594 C 90 20.707031 69.851562 0.558594 45 0.558594 Z M 45 0.558594 " clip-rule="nonzero"/></clipPath><clipPath id="d758d412df"><rect x="0" width="90" y="0" height="91"/></clipPath><clipPath id="b9c67361bf"><path d="M 30 278.070312 L 270 278.070312 L 270 340.722656 L 30 340.722656 Z M 30 278.070312 " clip-rule="nonzero"/></clipPath><clipPath id="000d429e57"><path d="M 189.957031 280.183594 C 177.652344 278.90625 163.664062 278.070312 149.933594 278.070312 C 136.207031 278.070312 122.996094 278.789062 110.820312 280.0625 C 110.5625 280.101562 110.300781 280.101562 110.042969 280.140625 C 64.324219 285.242188 30.648438 298.707031 30 313.835938 L 30 340.722656 L 270 340.722656 L 270 313.859375 C 269.351562 298.628906 236.195312 285.164062 189.957031 280.183594 Z M 189.957031 280.183594 " clip-rule="nonzero"/></clipPath><clipPath id="e5e1d641ca"><path d="M 0 0.0703125 L 240 0.0703125 L 240 62.722656 L 0 62.722656 Z M 0 0.0703125 " clip-rule="nonzero"/></clipPath><clipPath id="e7dc422f37"><path d="M 159.957031 2.183594 C 147.652344 0.90625 133.664062 0.0703125 119.933594 0.0703125 C 106.207031 0.0703125 92.996094 0.789062 80.820312 2.0625 C 80.5625 2.101562 80.300781 2.101562 80.042969 2.140625 C 34.324219 7.242188 0.648438 20.707031 0 35.835938 L 0 62.722656 L 240 62.722656 L 240 35.859375 C 239.351562 20.628906 206.195312 7.164062 159.957031 2.183594 Z M 159.957031 2.183594 " clip-rule="nonzero"/></clipPath><clipPath id="64523454dc"><rect x="0" width="240" y="0" height="63"/></clipPath></defs><path fill="#000000" d="M 150 110.625 C 171.75 110.625 189.375 128.25 189.375 150 C 189.375 171.75 171.75 189.375 150 189.375 C 128.25 189.375 110.625 171.75 110.625 150 C 110.625 128.25 128.25 110.625 150 110.625 M 150 279.375 C 205.78125 279.375 264.375 306.65625 264.375 318.75 L 264.375 339.375 L 35.625 339.375 L 35.625 318.75 C 35.625 306.65625 94.21875 279.375 150 279.375 M 150 75 C 108.5625 75 75 108.5625 75 150 C 75 191.34375 108.5625 225 150 225 C 191.4375 225 225 191.34375 225 150 C 225 108.5625 191.4375 75 150 75 Z M 150 243.75 C 100.03125 243.75 0 268.78125 0 318.75 L 0 375 L 300 375 L 300 318.75 C 300 268.78125 199.96875 243.75 150 243.75 Z M 150 243.75 " fill-opacity="1" fill-rule="nonzero"/><g clip-path="url(#408cd234ae)"><g clip-path="url(#83f214224b)"><g transform="matrix(1, 0, 0, 1, 105, 104)"><g clip-path="url(#d758d412df)"><g clip-path="url(#bb991d6d6c)"><g clip-path="url(#9fb01b98f2)"><path fill="#ffffff" d="M 0 0.558594 L 90 0.558594 L 90 90.558594 L 0 90.558594 Z M 0 0.558594 " fill-opacity="1" fill-rule="nonzero"/></g></g></g></g></g></g><g clip-path="url(#b9c67361bf)"><g clip-path="url(#000d429e57)"><g transform="matrix(1, 0, 0, 1, 30, 278)"><g clip-path="url(#64523454dc)"><g clip-path="url(#e5e1d641ca)"><g clip-path="url(#e7dc422f37)"><path fill="#ffffff" d="M 240 62.722656 L -0.0859375 62.722656 L -0.0859375 0.0703125 L 240 0.0703125 Z M 240 62.722656 " fill-opacity="1" fill-rule="nonzero"/></g></g></g></g></g></g></svg>