<svg xmlns="http://www.w3.org/2000/svg" xmlns:xlink="http://www.w3.org/1999/xlink" width="48" zoomAndPan="magnify" viewBox="0 0 36 36.000001" height="48" preserveAspectRatio="xMidYMid meet" version="1.0"><defs><clipPath id="7ad956d74e"><path d="M 1.050781 0.5625 L 34.949219 0.5625 L 34.949219 34.460938 L 1.050781 34.460938 Z M 1.050781 0.5625 " clip-rule="nonzero"/></clipPath><clipPath id="08425aefef"><path d="M 18 0.5625 C 8.640625 0.5625 1.050781 8.152344 1.050781 17.511719 C 1.050781 26.875 8.640625 34.460938 18 34.460938 C 27.359375 34.460938 34.949219 26.875 34.949219 17.511719 C 34.949219 8.152344 27.359375 0.5625 18 0.5625 Z M 18 0.5625 " clip-rule="nonzero"/></clipPath><clipPath id="22145b65d6"><path d="M 0.0507812 0.5625 L 33.949219 0.5625 L 33.949219 34.460938 L 0.0507812 34.460938 Z M 0.0507812 0.5625 " clip-rule="nonzero"/></clipPath><clipPath id="474c227364"><path d="M 17 0.5625 C 7.640625 0.5625 0.0507812 8.152344 0.0507812 17.511719 C 0.0507812 26.875 7.640625 34.460938 17 34.460938 C 26.359375 34.460938 33.949219 26.875 33.949219 17.511719 C 33.949219 8.152344 26.359375 0.5625 17 0.5625 Z M 17 0.5625 " clip-rule="nonzero"/></clipPath><clipPath id="59e111e402"><rect x="0" width="34" y="0" height="35"/></clipPath><clipPath id="32b58810ba"><path d="M 9.894531 10.535156 L 28 10.535156 L 28 24.398438 L 9.894531 24.398438 Z M 9.894531 10.535156 " clip-rule="nonzero"/></clipPath></defs><g clip-path="url(#7ad956d74e)"><g clip-path="url(#08425aefef)"><g transform="matrix(1, 0, 0, 1, 1, 0.000000000000010603)"><g clip-path="url(#59e111e402)"><g clip-path="url(#22145b65d6)"><g clip-path="url(#474c227364)"><path fill="#ff751f" d="M 0.0507812 0.5625 L 33.949219 0.5625 L 33.949219 34.460938 L 0.0507812 34.460938 Z M 0.0507812 0.5625 " fill-opacity="1" fill-rule="nonzero"/></g></g></g></g></g></g><g clip-path="url(#32b58810ba)"><path fill="#ffffff" d="M 15.652344 21.492188 L 11.363281 17.203125 L 9.910156 18.660156 L 15.652344 24.402344 L 27.988281 12.0625 L 26.535156 10.609375 Z M 15.652344 21.492188 " fill-opacity="1" fill-rule="nonzero"/></g></svg>