<svg xmlns="http://www.w3.org/2000/svg" xmlns:xlink="http://www.w3.org/1999/xlink" width="100" zoomAndPan="magnify" viewBox="0 0 75 74.999997" height="100" preserveAspectRatio="xMidYMid meet" version="1.0"><defs><clipPath id="e6ce7b7615"><path d="M 0 7.5 L 75 7.5 L 75 63.667969 L 0 63.667969 Z M 0 7.5 " clip-rule="nonzero"/></clipPath><clipPath id="ce4660d7c2"><path d="M 3.75 7.5 L 71.25 7.5 C 73.320312 7.5 75 9.179688 75 11.25 L 75 59.917969 C 75 61.988281 73.320312 63.667969 71.25 63.667969 L 3.75 63.667969 C 1.679688 63.667969 0 61.988281 0 59.917969 L 0 11.25 C 0 9.179688 1.679688 7.5 3.75 7.5 Z M 3.75 7.5 " clip-rule="nonzero"/></clipPath><clipPath id="2a389261a6"><path d="M 0 0.5 L 75 0.5 L 75 56.667969 L 0 56.667969 Z M 0 0.5 " clip-rule="nonzero"/></clipPath><clipPath id="98993c95b4"><path d="M 3.75 0.5 L 71.25 0.5 C 73.320312 0.5 75 2.179688 75 4.25 L 75 52.917969 C 75 54.988281 73.320312 56.667969 71.25 56.667969 L 3.75 56.667969 C 1.679688 56.667969 0 54.988281 0 52.917969 L 0 4.25 C 0 2.179688 1.679688 0.5 3.75 0.5 Z M 3.75 0.5 " clip-rule="nonzero"/></clipPath><clipPath id="c67b15ad35"><rect x="0" width="75" y="0" height="57"/></clipPath><clipPath id="29b8463e51"><path d="M 0 7.5 L 75 7.5 L 75 63.75 L 0 63.75 Z M 0 7.5 " clip-rule="nonzero"/></clipPath></defs><g clip-path="url(#e6ce7b7615)"><g clip-path="url(#ce4660d7c2)"><g transform="matrix(1, 0, 0, 1, 0, 7)"><g clip-path="url(#c67b15ad35)"><g clip-path="url(#2a389261a6)"><g clip-path="url(#98993c95b4)"><path fill="#ffffff" d="M 0 0.5 L 75.039062 0.5 L 75.039062 56.667969 L 0 56.667969 Z M 0 0.5 " fill-opacity="1" fill-rule="nonzero"/></g></g></g></g></g></g><g clip-path="url(#29b8463e51)"><path fill="#000000" d="M 69.117188 63.738281 L 5.8125 63.738281 C 5.332031 63.675781 4.980469 63.621094 4.761719 63.578125 C 2.734375 63.148438 1.050781 61.558594 0.375 59.660156 C 0.171875 59.09375 0.0976562 58.496094 0 57.894531 L 0 13.253906 C 0.105469 12.964844 0.0976562 12.644531 0.15625 12.398438 C 0.238281 12.066406 0.320312 11.695312 0.453125 11.382812 C 1.304688 9.382812 2.796875 8.144531 4.929688 7.671875 C 5.125 7.628906 5.320312 7.601562 5.515625 7.59375 C 5.78125 7.582031 6.039062 7.519531 6.308594 7.519531 C 26.929688 7.511719 47.773438 7.511719 68.835938 7.519531 C 69 7.519531 69.160156 7.53125 69.316406 7.554688 C 69.472656 7.578125 69.632812 7.601562 69.792969 7.621094 C 70.34375 7.695312 70.832031 7.824219 71.253906 8.015625 C 73.269531 8.914062 74.757812 10.8125 74.90625 13.070312 C 74.929688 13.4375 74.96875 13.792969 74.964844 14.15625 C 74.878906 25.367188 74.925781 36.585938 74.929688 48.585938 C 74.929688 51.15625 74.996094 53.863281 74.960938 56.570312 C 74.949219 57.402344 74.929688 57.96875 74.902344 58.261719 C 74.734375 60.039062 73.898438 61.484375 72.394531 62.601562 C 71.675781 63.132812 70.875 63.472656 69.992188 63.613281 C 69.699219 63.664062 69.40625 63.703125 69.117188 63.738281 Z M 36.367188 41.316406 C 37.320312 41.675781 38.4375 41.441406 39.175781 40.753906 C 45.710938 34.660156 52.207031 28.628906 58.664062 22.664062 C 62.394531 19.214844 66.09375 15.785156 69.761719 12.375 C 69.816406 12.320312 69.820312 12.265625 69.765625 12.210938 C 69.683594 12.121094 69.558594 12.078125 69.394531 12.078125 C 48 12.070312 26.867188 12.066406 5.996094 12.066406 C 5.585938 12.066406 5.351562 12.164062 5.074219 12.425781 C 5.035156 12.464844 5.035156 12.503906 5.078125 12.539062 C 5.300781 12.738281 5.523438 12.9375 5.746094 13.140625 C 8.238281 15.417969 11.03125 18.003906 14.125 20.894531 C 20.769531 27.105469 27.21875 33.105469 33.46875 38.902344 C 34.027344 39.414062 34.59375 39.941406 35.179688 40.484375 C 35.648438 40.914062 36.046875 41.191406 36.367188 41.316406 Z M 70.300781 18.328125 C 70.300781 18.3125 70.292969 18.296875 70.277344 18.285156 C 70.261719 18.273438 70.246094 18.273438 70.230469 18.285156 C 69.714844 18.683594 69.300781 19.152344 68.8125 19.609375 C 63.507812 24.542969 58.0625 29.628906 52.480469 34.863281 C 52.429688 34.917969 52.371094 34.960938 52.3125 35 C 52.226562 35.058594 52.222656 35.121094 52.304688 35.1875 C 52.488281 35.34375 52.652344 35.492188 52.796875 35.625 C 55.8125 38.457031 59.0625 41.519531 62.539062 44.820312 C 63.210938 45.457031 63.804688 46.027344 64.3125 46.527344 C 64.863281 47.070312 65.453125 47.585938 66.003906 48.128906 C 66.4375 48.554688 66.859375 48.953125 67.269531 49.328125 C 67.960938 49.953125 68.589844 50.609375 69.28125 51.234375 C 69.605469 51.53125 69.925781 51.839844 70.230469 52.160156 C 70.242188 52.171875 70.257812 52.175781 70.277344 52.175781 C 70.304688 52.167969 70.320312 52.15625 70.320312 52.136719 C 70.320312 40.882812 70.320312 29.636719 70.316406 18.394531 C 70.316406 18.382812 70.3125 18.367188 70.308594 18.355469 C 70.304688 18.347656 70.300781 18.335938 70.300781 18.328125 Z M 4.742188 52.175781 C 5.203125 51.710938 5.707031 51.21875 6.25 50.703125 C 11.101562 46.082031 15.898438 41.496094 20.632812 36.949219 C 21.167969 36.433594 21.734375 35.898438 22.332031 35.34375 C 22.445312 35.234375 22.445312 35.128906 22.328125 35.023438 C 22.097656 34.816406 21.882812 34.613281 21.675781 34.421875 C 15.957031 29.058594 10.574219 24.035156 5.523438 19.351562 C 5.21875 19.070312 4.929688 18.800781 4.652344 18.539062 C 4.640625 18.527344 4.636719 18.527344 4.636719 18.539062 L 4.613281 52.121094 C 4.613281 52.242188 4.65625 52.261719 4.742188 52.175781 Z M 37.71875 46.175781 C 35.445312 46.28125 33.609375 45.457031 31.945312 43.886719 C 30.433594 42.460938 28.5625 40.707031 26.339844 38.628906 C 26.246094 38.542969 26.148438 38.457031 26.039062 38.375 C 25.964844 38.320312 25.894531 38.324219 25.828125 38.386719 C 25.550781 38.640625 25.285156 38.925781 25.011719 39.183594 C 19.214844 44.730469 13.472656 50.238281 7.785156 55.703125 C 7.066406 56.394531 6.425781 56.996094 5.863281 57.511719 C 5.546875 57.804688 5.25 58.089844 4.96875 58.371094 C 4.894531 58.449219 4.890625 58.527344 4.964844 58.605469 C 5.414062 59.085938 5.8125 59.050781 6.535156 59.050781 C 27.324219 59.050781 48.113281 59.050781 68.902344 59.050781 C 69.414062 59.050781 69.699219 59 69.972656 58.585938 C 70.035156 58.488281 70.027344 58.402344 69.941406 58.324219 C 63.242188 51.976562 56.546875 45.621094 49.851562 39.261719 C 49.480469 38.90625 49.164062 38.585938 48.90625 38.300781 C 48.820312 38.210938 48.734375 38.207031 48.644531 38.292969 C 46.757812 40.039062 44.882812 41.8125 43.011719 43.574219 C 42.296875 44.25 41.738281 44.714844 41.347656 44.96875 C 40.1875 45.71875 38.980469 46.121094 37.71875 46.175781 Z M 37.71875 46.175781 " fill-opacity="1" fill-rule="nonzero"/></g></svg>