<svg xmlns="http://www.w3.org/2000/svg" xmlns:xlink="http://www.w3.org/1999/xlink" width="100" zoomAndPan="magnify" viewBox="0 0 75 74.999997" height="100" preserveAspectRatio="xMidYMid meet" version="1.0"><defs><clipPath id="a6305393b3"><path d="M 0.09375 33 L 51 33 L 51 75 L 0.09375 75 Z M 0.09375 33 " clip-rule="nonzero"/></clipPath><clipPath id="90bc8891b6"><path d="M 9.871094 37.5 L 32.371094 37.5 L 32.371094 60 L 9.871094 60 Z M 9.871094 37.5 " clip-rule="nonzero"/></clipPath><clipPath id="ef71ee2d76"><path d="M 0.871094 0.5 L 23.371094 0.5 L 23.371094 23 L 0.871094 23 Z M 0.871094 0.5 " clip-rule="nonzero"/></clipPath><clipPath id="99aad0248b"><rect x="0" width="24" y="0" height="23"/></clipPath></defs><path fill="#0a2a4e" d="M 14.007812 23.695312 C 13.613281 23.261719 13.652344 22.59375 14.085938 22.203125 C 14.519531 21.8125 15.183594 21.847656 15.578125 22.28125 C 16.234375 23.007812 17.144531 23.488281 18.144531 23.417969 C 19.136719 23.351562 19.921875 22.746094 20.425781 21.929688 C 20.742188 21.433594 21.390625 21.28125 21.882812 21.589844 C 22.382812 21.898438 22.53125 22.550781 22.226562 23.046875 C 21.925781 23.527344 21.582031 23.933594 21.203125 24.273438 C 20.675781 24.75 20.085938 25.09375 19.457031 25.300781 C 19.023438 25.578125 18.773438 26.03125 18.714844 26.546875 C 18.664062 27.074219 18.835938 27.648438 19.230469 28.015625 C 19.648438 28.414062 19.671875 29.082031 19.273438 29.503906 C 18.871094 29.925781 18.203125 29.945312 17.78125 29.546875 C 16.660156 28.484375 16.3125 26.84375 16.824219 25.410156 C 16.28125 25.28125 15.753906 25.0625 15.253906 24.75 C 14.804688 24.472656 14.386719 24.121094 14.007812 23.695312 Z M 26.484375 23.4375 C 26.804688 22.949219 27.460938 22.808594 27.945312 23.128906 C 28.4375 23.445312 28.574219 24.097656 28.261719 24.585938 C 27.882812 25.160156 27.832031 25.90625 28.195312 26.496094 C 28.515625 27.027344 29.074219 27.28125 29.6875 27.207031 C 30.273438 27.136719 30.800781 27.554688 30.863281 28.132812 C 30.933594 28.714844 30.523438 29.238281 29.9375 29.308594 C 28.496094 29.484375 27.140625 28.828125 26.390625 27.589844 C 25.605469 26.292969 25.65625 24.707031 26.484375 23.4375 Z M 26.484375 23.4375 " fill-opacity="1" fill-rule="evenodd"/><g clip-path="url(#a6305393b3)"><path fill="#0a2a4e" d="M 45.703125 34.953125 C 44.761719 34.535156 43.898438 33.992188 43.113281 33.347656 L 44.660156 33.347656 C 45.140625 33.347656 45.539062 33.691406 45.601562 34.167969 C 45.644531 34.429688 45.675781 34.691406 45.703125 34.953125 Z M 7.058594 74.917969 L 27.035156 74.917969 C 27.382812 73.945312 27.726562 72.894531 28.144531 71.953125 C 29.523438 68.878906 31.464844 68.457031 34.644531 68.902344 C 38.605469 69.453125 42.070312 71.464844 42.890625 66.34375 C 43.113281 64.960938 43.019531 63.59375 43.476562 63.289062 C 44.53125 62.945312 44.898438 61.78125 44.488281 60.96875 C 44.203125 60.398438 43.460938 60.132812 42.898438 59.859375 C 42.292969 59.566406 41.820312 59.394531 41.757812 59.355469 C 42.605469 59.15625 43.589844 58.902344 44.019531 58.796875 C 45.230469 58.492188 45.265625 57.640625 44.832031 56.765625 C 44.660156 55.921875 44.277344 55.101562 44.617188 54.710938 C 45.175781 54.085938 46.332031 53.957031 47.414062 53.84375 C 50.617188 53.515625 50.53125 51.90625 49 49.53125 C 46.867188 46.265625 45.425781 43.964844 45.394531 42.890625 C 45.410156 42.789062 45.417969 42.6875 45.425781 42.585938 C 40.417969 41.242188 36.25 37.84375 33.882812 33.34375 L 1.722656 33.335938 C 1.289062 33.335938 0.917969 33.617188 0.800781 34.039062 C 0.667969 34.546875 0.546875 35.0625 0.4375 35.589844 C -2.164062 48.871094 10.867188 55.941406 7.058594 74.921875 Z M 7.058594 74.917969 " fill-opacity="1" fill-rule="evenodd"/></g><path fill="#194274" d="M 50.21875 13.597656 C 44.046875 13.597656 39.046875 18.601562 39.046875 24.769531 C 39.046875 30.941406 44.046875 35.945312 50.21875 35.945312 C 56.390625 35.945312 61.390625 30.941406 61.390625 24.769531 C 61.390625 22.84375 60.898438 21.027344 60.042969 19.441406 L 57.730469 21.75 C 58.109375 22.683594 58.316406 23.703125 58.316406 24.769531 C 58.316406 29.246094 54.691406 32.871094 50.21875 32.871094 C 45.746094 32.871094 42.121094 29.246094 42.121094 24.769531 C 42.121094 20.296875 45.746094 16.671875 50.21875 16.671875 C 51.289062 16.671875 52.308594 16.878906 53.242188 17.253906 L 55.546875 14.949219 C 53.964844 14.089844 52.152344 13.597656 50.21875 13.597656 Z M 50.21875 18.753906 C 50.6875 18.753906 51.144531 18.808594 51.589844 18.910156 L 47.972656 22.523438 C 46.730469 23.765625 46.730469 25.777344 47.972656 27.019531 C 49.210938 28.257812 51.222656 28.257812 52.464844 27.019531 L 56.082031 23.402344 C 56.183594 23.84375 56.238281 24.300781 56.238281 24.769531 C 56.238281 28.09375 53.542969 30.789062 50.21875 30.789062 C 46.894531 30.789062 44.199219 28.09375 44.199219 24.769531 C 44.199219 21.445312 46.894531 18.753906 50.21875 18.753906 Z M 50.21875 8.445312 C 53.277344 8.445312 56.140625 9.285156 58.585938 10.75 L 58.742188 11.753906 L 57.074219 13.425781 C 55.070312 12.214844 52.730469 11.519531 50.21875 11.519531 C 42.898438 11.519531 36.964844 17.453125 36.964844 24.769531 C 36.964844 32.089844 42.898438 38.023438 50.21875 38.023438 C 57.539062 38.023438 63.472656 32.089844 63.472656 24.769531 C 63.472656 22.261719 62.773438 19.917969 61.566406 17.917969 L 63.238281 16.246094 L 64.242188 16.40625 C 65.707031 18.851562 66.546875 21.714844 66.546875 24.769531 C 66.546875 33.789062 59.234375 41.097656 50.21875 41.097656 C 41.203125 41.097656 33.890625 33.789062 33.890625 24.769531 C 33.890625 15.753906 41.199219 8.445312 50.21875 8.445312 Z M 50.21875 8.445312 " fill-opacity="1" fill-rule="evenodd"/><path fill="#0a2a4e" d="M 3.535156 31.753906 C 3.726562 31.753906 3.917969 31.703125 4.089844 31.59375 C 4.589844 31.285156 4.738281 30.632812 4.433594 30.136719 C 3.691406 28.953125 3.386719 27.539062 3.5625 26.15625 C 3.804688 24.246094 4.917969 22.609375 6.523438 21.675781 C 6.59375 23.675781 7.515625 25.605469 9.089844 26.902344 C 9.546875 27.277344 10.210938 27.210938 10.582031 26.757812 C 10.953125 26.308594 10.890625 25.640625 10.441406 25.265625 C 8.992188 24.082031 8.34375 22.140625 8.769531 20.320312 C 9.199219 18.503906 10.660156 17.0625 12.480469 16.648438 C 13.972656 16.3125 15.492188 16.671875 16.675781 17.632812 C 17.132812 18.003906 17.792969 17.933594 18.164062 17.480469 C 18.535156 17.027344 18.464844 16.359375 18.015625 15.992188 C 17.558594 15.617188 17.066406 15.308594 16.546875 15.066406 C 17.523438 13.34375 19.242188 12.621094 20.65625 12.535156 C 22.339844 12.429688 23.832031 13.125 24.773438 14.417969 C 24.371094 14.734375 24 15.089844 23.671875 15.484375 C 23.296875 15.929688 23.34375 16.597656 23.792969 16.976562 C 24.242188 17.351562 24.90625 17.296875 25.285156 16.851562 C 26.335938 15.617188 27.855469 14.910156 29.472656 14.910156 L 29.480469 14.910156 C 30.679688 14.910156 31.820312 15.289062 32.769531 16.007812 C 33.234375 16.359375 33.902344 16.265625 34.253906 15.796875 C 34.601562 15.328125 34.507812 14.664062 34.039062 14.316406 C 32.710938 13.316406 31.136719 12.789062 29.480469 12.789062 L 29.464844 12.789062 C 28.472656 12.792969 27.503906 12.984375 26.613281 13.351562 C 25.257812 11.375 22.996094 10.269531 20.519531 10.417969 C 17.867188 10.582031 15.613281 12.109375 14.46875 14.464844 C 13.671875 14.359375 12.835938 14.394531 12.015625 14.582031 C 9.625 15.121094 7.679688 16.898438 6.894531 19.191406 C 3.960938 20.203125 1.859375 22.773438 1.457031 25.890625 C 1.222656 27.753906 1.636719 29.660156 2.636719 31.257812 C 2.835938 31.578125 3.175781 31.753906 3.535156 31.753906 Z M 18.464844 29.84375 C 18.203125 29.84375 17.945312 29.746094 17.738281 29.554688 C 16.867188 28.730469 16.433594 27.503906 16.582031 26.277344 C 16.617188 25.976562 16.683594 25.6875 16.78125 25.414062 C 15.734375 25.167969 14.761719 24.578125 13.972656 23.703125 C 13.578125 23.269531 13.613281 22.597656 14.050781 22.207031 C 14.476562 21.816406 15.148438 21.851562 15.539062 22.285156 C 16.261719 23.089844 17.21875 23.5 18.160156 23.417969 C 19.050781 23.339844 19.84375 22.8125 20.390625 21.933594 C 20.699219 21.4375 21.355469 21.285156 21.855469 21.59375 C 22.347656 21.902344 22.496094 22.554688 22.191406 23.054688 C 21.496094 24.167969 20.535156 24.945312 19.414062 25.308594 C 18.863281 25.671875 18.722656 26.222656 18.6875 26.527344 C 18.617188 27.09375 18.808594 27.648438 19.191406 28.015625 C 19.621094 28.417969 19.636719 29.085938 19.234375 29.511719 C 19.027344 29.734375 18.75 29.84375 18.464844 29.84375 Z M 29.453125 29.339844 C 28.195312 29.339844 27.046875 28.710938 26.371094 27.628906 C 25.570312 26.34375 25.597656 24.738281 26.449219 23.4375 C 26.769531 22.949219 27.425781 22.808594 27.917969 23.128906 C 28.410156 23.449219 28.546875 24.105469 28.226562 24.597656 C 27.753906 25.316406 27.890625 26.058594 28.175781 26.511719 C 28.324219 26.757812 28.773438 27.316406 29.652344 27.210938 C 30.238281 27.140625 30.757812 27.554688 30.835938 28.136719 C 30.90625 28.714844 30.484375 29.242188 29.910156 29.3125 C 29.757812 29.332031 29.601562 29.339844 29.453125 29.339844 Z M 29.453125 29.339844 " fill-opacity="1" fill-rule="evenodd"/><path fill="#0a2a4e" d="M 65.371094 11.113281 L 62.503906 13.984375 L 50.96875 25.519531 C 50.554688 25.933594 49.882812 25.933594 49.46875 25.519531 C 49.054688 25.105469 49.054688 24.4375 49.46875 24.023438 L 61.003906 12.488281 L 60.175781 7.296875 L 67.398438 0.0820312 L 68.425781 6.5625 L 74.910156 7.59375 L 67.695312 14.808594 L 64.1875 14.253906 L 66.347656 12.089844 C 66.617188 11.820312 66.617188 11.382812 66.347656 11.113281 C 66.078125 10.84375 65.640625 10.84375 65.371094 11.113281 Z M 65.371094 11.113281 " fill-opacity="1" fill-rule="evenodd"/><g clip-path="url(#90bc8891b6)"><g transform="matrix(1, 0, 0, 1, 9, 37)"><g clip-path="url(#99aad0248b)"><g clip-path="url(#ef71ee2d76)"><path fill="#0a2a4e" d="M 0.871094 0.5 L 23.371094 0.5 L 23.371094 23 L 0.871094 23 Z M 0.871094 0.5 " fill-opacity="1" fill-rule="nonzero"/></g></g></g></g></svg>