<svg xmlns="http://www.w3.org/2000/svg" xmlns:xlink="http://www.w3.org/1999/xlink" width="100" zoomAndPan="magnify" viewBox="0 0 75 74.999997" height="100" preserveAspectRatio="xMidYMid meet" version="1.0"><defs><clipPath id="8faf9b6dd2"><path d="M 74.4375 39.882812 L 74.796875 39.882812 L 74.796875 40.214844 L 74.4375 40.214844 Z M 74.4375 39.882812 " clip-rule="nonzero"/></clipPath><clipPath id="5d71e6870f"><path d="M 74.773438 40.125 C 74.101562 40.351562 74.699219 39.898438 74.699219 39.898438 " clip-rule="nonzero"/></clipPath><clipPath id="45d2168add"><path d="M 0.4375 0.882812 L 0.796875 0.882812 L 0.796875 1.214844 L 0.4375 1.214844 Z M 0.4375 0.882812 " clip-rule="nonzero"/></clipPath><clipPath id="bfe98f1e96"><path d="M 0.773438 1.125 C 0.101562 1.351562 0.699219 0.898438 0.699219 0.898438 " clip-rule="nonzero"/></clipPath><clipPath id="1bf5c6266e"><rect x="0" width="1" y="0" height="2"/></clipPath><clipPath id="4b9d78e93a"><path d="M 40.390625 38.230469 L 40.746094 38.230469 L 40.746094 38.5625 L 40.390625 38.5625 Z M 40.390625 38.230469 " clip-rule="nonzero"/></clipPath><clipPath id="9ff4bff972"><path d="M 40.726562 38.476562 C 40.050781 38.699219 40.648438 38.25 40.648438 38.25 " clip-rule="nonzero"/></clipPath><clipPath id="051a619384"><path d="M 0.390625 0.230469 L 0.746094 0.230469 L 0.746094 0.5625 L 0.390625 0.5625 Z M 0.390625 0.230469 " clip-rule="nonzero"/></clipPath><clipPath id="29454a8f07"><path d="M 0.726562 0.476562 C 0.0507812 0.699219 0.648438 0.25 0.648438 0.25 " clip-rule="nonzero"/></clipPath><clipPath id="eaaf64dafa"><rect x="0" width="1" y="0" height="1"/></clipPath></defs><path fill="#ffffff" d="M 37.371094 98.558594 C 71 98.558594 98.429688 71.128906 98.429688 37.5 C 98.429688 3.867188 71 -23.5625 37.371094 -23.5625 C 3.738281 -23.5625 -23.691406 3.867188 -23.691406 37.5 C -23.691406 71.128906 3.738281 98.558594 37.371094 98.558594 Z M 37.371094 98.558594 " fill-opacity="1" fill-rule="evenodd"/><path fill="#ffffff" d="M 41.1875 65.679688 C 40.953125 65.480469 40.820312 65.191406 40.820312 64.886719 L 40.820312 63.222656 L 34.769531 67.195312 L 40.820312 71.167969 L 40.820312 69.1875 C 40.820312 68.671875 41.199219 68.234375 41.710938 68.160156 C 53.136719 66.535156 62.757812 58.585938 66.585938 47.742188 L 64.273438 47.742188 C 62.53125 52.28125 59.648438 56.332031 55.898438 59.496094 C 51.917969 62.855469 47.121094 65.074219 42.027344 65.910156 C 41.726562 65.960938 41.417969 65.875 41.1875 65.679688 Z M 41.1875 65.679688 " fill-opacity="1" fill-rule="nonzero"/><path fill="#ffffff" d="M 20.136719 57.890625 L 20.84375 57.480469 L 14.316406 46.171875 L 12.492188 47.222656 C 14.121094 51.371094 16.757812 55.03125 20.136719 57.890625 Z M 20.136719 57.890625 " fill-opacity="1" fill-rule="nonzero"/><path fill="#ffffff" d="M 21.621094 53.09375 C 23.96875 52.0625 24.664062 52.011719 26.726562 51.855469 C 26.960938 51.839844 27.214844 51.820312 27.492188 51.796875 C 33.25 51.339844 36.953125 51.046875 39.816406 50.816406 C 42.21875 50.628906 43.417969 50.53125 44.238281 50.160156 C 45.023438 49.800781 45.683594 49.054688 47.007812 47.570312 C 47.363281 47.171875 47.761719 46.722656 48.21875 46.21875 C 53.597656 40.296875 56.984375 36.570312 58.378906 35.035156 C 57.8125 34.6875 57.152344 34.492188 56.480469 34.480469 C 55.304688 34.472656 54.160156 34.980469 53.171875 35.972656 C 53.164062 35.980469 53.15625 35.988281 53.144531 35.996094 L 47.09375 41.648438 L 45.574219 43.089844 C 45.316406 44.742188 43.933594 46.074219 42.171875 46.214844 L 32.5625 46.980469 C 32.535156 46.984375 32.503906 46.984375 32.476562 46.984375 C 31.941406 46.984375 31.488281 46.574219 31.445312 46.027344 C 31.398438 45.457031 31.824219 44.957031 32.394531 44.910156 L 42.003906 44.144531 C 42.882812 44.074219 43.574219 43.308594 43.535156 42.464844 C 43.414062 41.835938 43.152344 41.332031 42.8125 41.09375 C 42.753906 41.050781 42.691406 41.019531 42.628906 40.992188 C 42.609375 40.984375 42.59375 40.976562 42.574219 40.96875 C 42.320312 40.875 42.011719 40.867188 41.632812 40.945312 C 41.589844 40.957031 41.546875 40.960938 41.503906 40.964844 C 41.503906 40.964844 39.308594 41.140625 34.925781 41.492188 C 34.71875 41.507812 34.511719 41.460938 34.332031 41.359375 C 28.421875 38.039062 21.972656 43.054688 17.449219 47.449219 L 20.890625 53.410156 Z M 21.621094 53.09375 " fill-opacity="1" fill-rule="nonzero"/><path fill="#ffffff" d="M 33.550781 9.316406 C 33.78125 9.515625 33.917969 9.804688 33.917969 10.109375 L 33.917969 11.773438 L 39.96875 7.800781 L 33.917969 3.828125 L 33.917969 5.808594 C 33.917969 6.324219 33.535156 6.761719 33.023438 6.835938 C 21.605469 8.460938 11.984375 16.410156 8.152344 27.257812 L 10.46875 27.257812 C 12.210938 22.71875 15.09375 18.664062 18.839844 15.5 C 22.820312 12.140625 27.617188 9.921875 32.710938 9.085938 C 33.011719 9.035156 33.316406 9.121094 33.550781 9.316406 Z M 33.550781 9.316406 " fill-opacity="1" fill-rule="nonzero"/><path fill="#0a2a4e" d="M 32.386719 14.613281 C 32.722656 14.792969 33.128906 14.777344 33.449219 14.566406 L 42.429688 8.667969 C 42.722656 8.476562 42.898438 8.148438 42.898438 7.800781 C 42.898438 7.449219 42.722656 7.125 42.429688 6.933594 L 33.449219 1.035156 C 33.128906 0.824219 32.722656 0.808594 32.386719 0.988281 C 32.050781 1.167969 31.839844 1.519531 31.839844 1.902344 L 31.839844 4.917969 C 19.554688 7.015625 9.359375 15.984375 5.726562 27.996094 C 5.628906 28.3125 5.6875 28.652344 5.886719 28.914062 C 6.082031 29.179688 6.390625 29.335938 6.71875 29.335938 L 11.191406 29.335938 C 11.632812 29.335938 12.023438 29.058594 12.171875 28.644531 C 15.296875 19.8125 22.769531 13.285156 31.839844 11.359375 L 31.839844 13.699219 C 31.839844 14.082031 32.050781 14.433594 32.386719 14.613281 Z M 18.839844 15.5 C 15.09375 18.664062 12.210938 22.71875 10.46875 27.257812 L 8.152344 27.257812 C 11.984375 16.410156 21.605469 8.460938 33.023438 6.835938 C 33.535156 6.761719 33.917969 6.324219 33.917969 5.808594 L 33.917969 3.828125 L 39.96875 7.800781 L 33.917969 11.773438 L 33.917969 10.109375 C 33.917969 9.804688 33.78125 9.515625 33.550781 9.316406 C 33.316406 9.121094 33.011719 9.035156 32.710938 9.085938 C 27.617188 9.921875 22.820312 12.140625 18.839844 15.5 Z M 18.839844 15.5 " fill-opacity="1" fill-rule="nonzero"/><path fill="#0a2a4e" d="M 42.351562 60.382812 C 42.015625 60.199219 41.609375 60.21875 41.289062 60.429688 L 32.308594 66.328125 C 32.015625 66.519531 31.839844 66.84375 31.839844 67.195312 C 31.839844 67.542969 32.015625 67.871094 32.308594 68.0625 L 41.289062 73.960938 C 41.460938 74.074219 41.660156 74.132812 41.859375 74.132812 C 42.027344 74.132812 42.199219 74.089844 42.351562 74.007812 C 42.6875 73.828125 42.898438 73.476562 42.898438 73.09375 L 42.898438 70.078125 C 55.1875 67.980469 65.382812 59.011719 69.011719 47.003906 C 69.105469 46.6875 69.046875 46.347656 68.851562 46.085938 C 68.65625 45.820312 68.347656 45.664062 68.019531 45.664062 L 63.546875 45.664062 C 63.109375 45.664062 62.714844 45.941406 62.570312 46.355469 C 59.441406 55.183594 51.96875 61.710938 42.898438 63.636719 L 42.898438 61.296875 C 42.898438 60.914062 42.6875 60.5625 42.351562 60.382812 Z M 55.898438 59.496094 C 59.648438 56.332031 62.53125 52.28125 64.273438 47.742188 L 66.585938 47.742188 C 62.757812 58.585938 53.136719 66.535156 41.710938 68.160156 C 41.199219 68.234375 40.820312 68.671875 40.820312 69.1875 L 40.820312 71.167969 L 34.769531 67.195312 L 40.820312 63.222656 L 40.820312 64.886719 C 40.820312 65.191406 40.953125 65.480469 41.1875 65.679688 C 41.417969 65.875 41.726562 65.960938 42.027344 65.910156 C 47.121094 65.074219 51.917969 62.855469 55.898438 59.496094 Z M 55.898438 59.496094 " fill-opacity="1" fill-rule="nonzero"/><path fill="#0a2a4e" d="M 1.769531 43.027344 L 4.792969 43.027344 C 6.882812 55.316406 15.851562 65.507812 27.863281 69.140625 C 27.964844 69.167969 28.066406 69.183594 28.164062 69.183594 C 28.386719 69.183594 28.601562 69.113281 28.785156 68.980469 C 29.046875 68.78125 29.203125 68.472656 29.203125 68.144531 L 29.203125 63.675781 C 29.203125 63.234375 28.925781 62.84375 28.511719 62.695312 C 26.128906 61.851562 23.914062 60.6875 21.910156 59.265625 L 22.78125 58.761719 C 23.277344 58.472656 23.449219 57.839844 23.160156 57.34375 L 21.9375 55.21875 L 22.453125 54.996094 C 24.476562 54.105469 24.9375 54.070312 26.882812 53.925781 C 27.117188 53.910156 27.375 53.890625 27.65625 53.867188 C 33.414062 53.410156 37.117188 53.117188 39.992188 52.886719 C 45.285156 52.46875 45.527344 52.355469 48.558594 48.953125 C 48.910156 48.558594 49.304688 48.113281 49.757812 47.617188 C 57.019531 39.621094 60.648438 35.625 60.648438 35.625 C 61.011719 35.222656 61.007812 34.609375 60.632812 34.214844 C 59.570312 33.085938 58.066406 32.425781 56.507812 32.40625 C 54.792969 32.378906 53.089844 33.121094 51.714844 34.492188 L 45.671875 40.136719 L 45.101562 40.675781 C 44.988281 40.453125 44.847656 40.238281 44.683594 40.03125 C 47.117188 37.917969 48.539062 34.851562 48.539062 31.585938 C 48.539062 25.425781 43.527344 20.414062 37.367188 20.414062 C 31.207031 20.414062 26.199219 25.425781 26.199219 31.585938 C 26.199219 34.050781 27.011719 36.421875 28.480469 38.351562 C 27.136719 38.566406 25.75 39.023438 24.324219 39.71875 C 21.226562 41.230469 18.433594 43.628906 16.378906 45.59375 L 15.59375 44.234375 C 15.457031 43.996094 15.230469 43.820312 14.964844 43.75 C 14.699219 43.679688 14.414062 43.714844 14.175781 43.851562 L 11.800781 45.222656 C 11.582031 44.503906 11.390625 43.773438 11.234375 43.027344 L 13.570312 43.027344 C 13.953125 43.027344 14.304688 42.820312 14.484375 42.484375 C 14.667969 42.148438 14.648438 41.738281 14.441406 41.421875 L 8.542969 32.4375 C 8.351562 32.144531 8.023438 31.96875 7.671875 31.96875 C 7.324219 31.96875 6.996094 32.144531 6.804688 32.433594 L 0.902344 41.421875 C 0.691406 41.738281 0.675781 42.148438 0.855469 42.484375 C 1.039062 42.820312 1.390625 43.027344 1.769531 43.027344 Z M 28.273438 31.585938 C 28.273438 26.570312 32.355469 22.492188 37.367188 22.492188 C 42.382812 22.492188 46.460938 26.570312 46.460938 31.585938 C 46.460938 34.472656 45.101562 37.164062 42.796875 38.882812 C 42.371094 38.800781 41.867188 38.785156 41.277344 38.898438 C 40.910156 38.929688 38.835938 39.097656 35.066406 39.394531 C 33.828125 38.746094 32.527344 38.363281 31.179688 38.242188 C 29.332031 36.527344 28.273438 34.117188 28.273438 31.585938 Z M 34.332031 41.359375 C 34.511719 41.460938 34.71875 41.507812 34.925781 41.492188 C 39.308594 41.140625 41.503906 40.964844 41.503906 40.964844 C 41.546875 40.960938 41.589844 40.957031 41.632812 40.945312 C 42.011719 40.867188 42.320312 40.875 42.574219 40.96875 C 42.59375 40.976562 42.609375 40.984375 42.628906 40.992188 C 42.691406 41.019531 42.753906 41.050781 42.8125 41.09375 C 43.152344 41.332031 43.414062 41.835938 43.535156 42.464844 C 43.574219 43.308594 42.882812 44.074219 42.003906 44.144531 L 32.398438 44.910156 C 31.824219 44.957031 31.398438 45.457031 31.445312 46.027344 C 31.488281 46.574219 31.941406 46.984375 32.476562 46.984375 C 32.503906 46.984375 32.535156 46.984375 32.5625 46.980469 L 42.171875 46.214844 C 43.933594 46.074219 45.316406 44.742188 45.574219 43.089844 L 47.09375 41.648438 L 53.144531 35.996094 C 53.15625 35.988281 53.164062 35.980469 53.171875 35.972656 C 54.160156 34.980469 55.304688 34.472656 56.480469 34.480469 C 57.152344 34.492188 57.8125 34.6875 58.378906 35.035156 C 56.984375 36.570312 53.597656 40.296875 48.21875 46.21875 C 47.761719 46.722656 47.363281 47.171875 47.007812 47.570312 C 45.683594 49.054688 45.023438 49.800781 44.238281 50.160156 C 43.417969 50.53125 42.21875 50.628906 39.816406 50.816406 C 36.953125 51.046875 33.25 51.339844 27.492188 51.796875 C 27.214844 51.820312 26.960938 51.839844 26.726562 51.855469 C 24.664062 52.011719 23.96875 52.0625 21.621094 53.09375 L 20.890625 53.410156 L 17.449219 47.449219 C 21.972656 43.054688 28.421875 38.039062 34.332031 41.359375 Z M 14.316406 46.171875 L 20.84375 57.480469 L 20.136719 57.890625 C 16.757812 55.03125 14.121094 51.371094 12.492188 47.222656 Z M 7.671875 34.898438 L 11.648438 40.953125 L 9.980469 40.953125 C 9.675781 40.953125 9.386719 41.085938 9.191406 41.316406 C 8.992188 41.550781 8.90625 41.859375 8.957031 42.160156 C 9.230469 43.816406 9.652344 45.4375 10.207031 47.015625 C 10.222656 47.082031 10.246094 47.148438 10.277344 47.214844 C 11.433594 50.40625 13.152344 53.398438 15.371094 56.027344 C 16.574219 57.453125 17.90625 58.75 19.34375 59.910156 C 19.382812 59.945312 19.417969 59.972656 19.460938 60 C 21.773438 61.847656 24.359375 63.335938 27.125 64.398438 L 27.125 66.710938 C 16.277344 62.882812 8.328125 53.265625 6.707031 41.84375 C 6.636719 41.332031 6.199219 40.953125 5.679688 40.953125 L 3.695312 40.953125 Z M 7.671875 34.898438 " fill-opacity="1" fill-rule="nonzero"/><path fill="#0a2a4e" d="M 72.964844 31.96875 L 69.945312 31.96875 C 67.855469 19.679688 58.882812 9.488281 46.871094 5.855469 C 46.558594 5.761719 46.214844 5.820312 45.953125 6.015625 C 45.6875 6.210938 45.535156 6.523438 45.535156 6.851562 L 45.535156 11.320312 C 45.535156 11.757812 45.808594 12.152344 46.226562 12.296875 C 55.054688 15.429688 61.582031 22.898438 63.503906 31.96875 L 61.164062 31.96875 C 60.78125 31.96875 60.433594 32.175781 60.25 32.511719 C 60.070312 32.847656 60.085938 33.257812 60.296875 33.574219 L 66.199219 42.558594 C 66.390625 42.851562 66.71875 43.027344 67.066406 43.027344 C 67.417969 43.027344 67.742188 42.851562 67.9375 42.558594 L 73.835938 33.574219 C 74.042969 33.257812 74.0625 32.847656 73.878906 32.511719 C 73.699219 32.175781 73.347656 31.96875 72.964844 31.96875 Z M 67.066406 40.097656 L 63.089844 34.042969 L 64.753906 34.042969 C 65.058594 34.042969 65.347656 33.910156 65.546875 33.679688 C 65.746094 33.445312 65.828125 33.136719 65.78125 32.835938 C 64.945312 27.742188 62.726562 22.949219 59.367188 18.96875 C 56.203125 15.222656 52.148438 12.335938 47.609375 10.597656 L 47.609375 8.28125 C 58.457031 12.109375 66.40625 21.730469 68.027344 33.152344 C 68.101562 33.664062 68.539062 34.042969 69.054688 34.042969 L 71.042969 34.042969 Z M 67.066406 40.097656 " fill-opacity="1" fill-rule="nonzero"/><path fill="#0a2a4e" d="M 35.179688 35.5625 C 35.382812 35.761719 35.648438 35.863281 35.914062 35.863281 C 36.179688 35.863281 36.445312 35.761719 36.648438 35.558594 L 43.136719 29.078125 C 43.539062 28.671875 43.539062 28.015625 43.136719 27.609375 C 42.730469 27.203125 42.074219 27.203125 41.667969 27.609375 L 35.914062 33.359375 L 33.070312 30.519531 C 32.664062 30.113281 32.007812 30.113281 31.601562 30.519531 C 31.195312 30.925781 31.195312 31.582031 31.601562 31.988281 Z M 35.179688 35.5625 " fill-opacity="1" fill-rule="nonzero"/><g clip-path="url(#8faf9b6dd2)"><g clip-path="url(#5d71e6870f)"><g transform="matrix(1, 0, 0, 1, 74, 39)"><g clip-path="url(#1bf5c6266e)"><g clip-path="url(#45d2168add)"><g clip-path="url(#bfe98f1e96)"><rect x="-90.5" width="108" fill="#0571d3" height="107.999996" y="-55.499999" fill-opacity="1"/></g></g></g></g></g></g><g clip-path="url(#4b9d78e93a)"><g clip-path="url(#9ff4bff972)"><g transform="matrix(1, 0, 0, 1, 40, 38)"><g clip-path="url(#eaaf64dafa)"><g clip-path="url(#051a619384)"><g clip-path="url(#29454a8f07)"><rect x="-56.5" width="108" fill="#0571d3" height="107.999996" y="-54.499999" fill-opacity="1"/></g></g></g></g></g></g></svg>