<svg xmlns="http://www.w3.org/2000/svg" xmlns:xlink="http://www.w3.org/1999/xlink" width="100" zoomAndPan="magnify" viewBox="0 0 75 74.999997" height="100" preserveAspectRatio="xMidYMid meet" version="1.0"><defs><clipPath id="01c9d1a22e"><path d="M 1.769531 0.519531 L 73 0.519531 L 73 74.769531 L 1.769531 74.769531 Z M 1.769531 0.519531 " clip-rule="nonzero"/></clipPath><clipPath id="70faf7be78"><path d="M 30.25 37.5 L 44.75 37.5 L 44.75 50.695312 L 30.25 50.695312 Z M 30.25 37.5 " clip-rule="nonzero"/></clipPath><clipPath id="b67d0cd944"><path d="M 0.25 0.5 L 14.75 0.5 L 14.75 13.695312 L 0.25 13.695312 Z M 0.25 0.5 " clip-rule="nonzero"/></clipPath><clipPath id="b00b31ebbf"><rect x="0" width="15" y="0" height="14"/></clipPath></defs><g clip-path="url(#01c9d1a22e)"><path fill="#0a2a4e" d="M 70.082031 55.304688 Z M 49.320312 68.917969 L 47.597656 68.742188 L 47.175781 72.808594 L 63.304688 74.476562 L 63.726562 70.410156 Z M 56.097656 53.152344 C 49.175781 59.828125 50.609375 60.933594 50.265625 67.3125 L 61.644531 68.488281 C 61.644531 68.402344 61.644531 68.320312 61.644531 68.234375 C 61.648438 66.671875 63.351562 64.613281 65.285156 62.277344 C 66.570312 60.722656 67.964844 59.035156 68.941406 57.429688 C 69.429688 56.621094 69.746094 56.171875 70.082031 55.304688 C 70.078125 55.3125 70.0625 55.359375 70.082031 55.304688 C 70.839844 53.382812 72.515625 49.113281 72.828125 44.710938 C 73.0625 41.457031 73.011719 40.152344 72.640625 37.3125 C 72.527344 36.460938 72.203125 35.25 71.75 34.019531 C 71.285156 32.808594 70.800781 31.738281 70.179688 30.855469 C 69.730469 30.21875 69.261719 29.730469 68.96875 29.839844 L 68.964844 29.839844 C 68.488281 30.023438 68.597656 30.925781 68.792969 32.496094 C 69.054688 34.628906 69.183594 35.871094 68.960938 38.21875 C 68.832031 39.597656 68.625 40.875 68.519531 41.4375 C 68.679688 41.949219 68.789062 42.507812 68.847656 43.089844 C 69.035156 44.929688 68.746094 47.152344 68.136719 48.738281 C 67.515625 50.351562 63.105469 55.367188 61.394531 57.605469 C 61.109375 57.976562 60.574219 58.050781 60.203125 57.765625 C 59.832031 57.480469 59.761719 56.949219 60.042969 56.578125 C 61.628906 54.5 66.070312 49.378906 66.554688 48.128906 C 67.078125 46.773438 67.320312 44.835938 67.160156 43.253906 C 67.070312 42.34375 66.765625 40.839844 65.804688 40.53125 C 65.222656 40.34375 64.746094 41.710938 64.273438 43.054688 C 63.988281 43.875 63.703125 44.6875 63.320312 45.328125 C 60.371094 50.265625 59.417969 50.300781 56.097656 53.152344 Z M 4.835938 55.304688 Z M 25.679688 68.910156 L 11.191406 70.410156 L 11.613281 74.476562 L 27.742188 72.808594 L 27.320312 68.742188 Z M 18.816406 53.152344 C 15.5 50.300781 14.546875 50.265625 11.597656 45.328125 C 11.214844 44.6875 10.929688 43.875 10.644531 43.054688 C 10.15625 41.667969 9.699219 40.300781 9.050781 40.550781 C 8.140625 40.902344 7.847656 42.359375 7.757812 43.253906 C 7.59375 44.835938 7.839844 46.773438 8.363281 48.128906 C 8.84375 49.378906 13.285156 54.5 14.871094 56.578125 C 15.15625 56.949219 15.085938 57.480469 14.714844 57.765625 C 14.339844 58.050781 13.808594 57.976562 13.523438 57.605469 C 11.8125 55.367188 7.402344 50.351562 6.78125 48.738281 C 6.167969 47.152344 5.882812 44.929688 6.070312 43.089844 C 6.128906 42.507812 6.238281 41.949219 6.398438 41.4375 C 6.292969 40.875 6.085938 39.597656 5.957031 38.21875 C 5.734375 35.871094 5.863281 34.628906 6.125 32.496094 C 6.316406 30.925781 6.429688 30.023438 5.953125 29.839844 C 5.65625 29.730469 5.1875 30.21875 4.738281 30.855469 C 4.117188 31.738281 3.632812 32.808594 3.167969 34.019531 C 2.714844 35.25 2.390625 36.460938 2.277344 37.3125 C 1.90625 40.152344 1.855469 41.457031 2.089844 44.710938 C 2.402344 49.113281 4.078125 53.382812 4.835938 55.304688 C 4.855469 55.359375 4.839844 55.316406 4.835938 55.304688 C 5.171875 56.175781 5.488281 56.625 5.976562 57.429688 C 6.949219 59.035156 8.347656 60.722656 9.632812 62.28125 C 11.566406 64.613281 13.269531 66.671875 13.273438 68.234375 C 13.273438 68.320312 13.273438 68.40625 13.269531 68.488281 L 24.648438 67.3125 C 24.304688 60.933594 25.742188 59.828125 18.816406 53.152344 Z M 42.441406 15.5625 C 39.855469 12.976562 35.660156 12.976562 33.070312 15.5625 C 30.484375 18.152344 30.484375 22.347656 33.070312 24.933594 C 35.65625 27.519531 39.851562 27.519531 42.441406 24.933594 C 45.027344 22.347656 45.027344 18.152344 42.441406 15.5625 Z M 26.128906 54.359375 L 28.558594 38.132812 C 28.925781 35.65625 27.085938 33.914062 25.238281 32.632812 C 22.238281 30.550781 20.433594 29.167969 18.164062 27.425781 C 16.652344 26.269531 14.929688 24.945312 12.429688 23.097656 C 11.777344 22.617188 11.3125 21.964844 11.128906 21.265625 C 10.511719 18.925781 13.328125 17.140625 14.976562 18.351562 C 34.601562 32.726562 40.914062 32.726562 60.535156 18.351562 C 61.632812 17.546875 63.199219 18.066406 63.976562 19.128906 C 64.960938 20.472656 64.394531 22.160156 63.097656 23.089844 C 60.171875 25.175781 58.332031 26.605469 56.609375 27.941406 C 54.761719 29.375 53.054688 30.703125 50.277344 32.632812 C 48.425781 33.914062 46.601562 35.652344 46.957031 38.128906 L 49.304688 54.359375 Z M 38.523438 4.8125 C 38.523438 5.238281 38.179688 5.578125 37.757812 5.578125 C 37.332031 5.578125 36.992188 5.238281 36.992188 4.8125 L 36.992188 1.289062 C 36.992188 0.867188 37.332031 0.523438 37.757812 0.523438 C 38.179688 0.523438 38.523438 0.867188 38.523438 1.289062 Z M 29.070312 6.9375 C 29.28125 7.300781 29.15625 7.769531 28.789062 7.980469 C 28.425781 8.191406 27.957031 8.066406 27.746094 7.703125 L 25.984375 4.652344 C 25.773438 4.285156 25.898438 3.816406 26.261719 3.605469 C 26.628906 3.394531 27.09375 3.519531 27.308594 3.882812 Z M 21.945312 13.503906 C 22.308594 13.710938 22.433594 14.179688 22.226562 14.542969 C 22.015625 14.910156 21.550781 15.035156 21.183594 14.824219 L 18.132812 13.0625 C 17.765625 12.855469 17.640625 12.386719 17.851562 12.023438 C 18.058594 11.65625 18.527344 11.53125 18.890625 11.742188 Z M 47.769531 7.699219 C 47.558594 8.0625 47.09375 8.191406 46.726562 7.980469 C 46.359375 7.769531 46.234375 7.304688 46.445312 6.9375 L 48.207031 3.886719 C 48.417969 3.519531 48.882812 3.394531 49.25 3.605469 C 49.613281 3.816406 49.738281 4.28125 49.53125 4.644531 Z M 54.335938 14.824219 C 53.96875 15.035156 53.5 14.910156 53.289062 14.542969 C 53.078125 14.179688 53.203125 13.710938 53.566406 13.5 L 56.621094 11.738281 C 56.984375 11.523438 57.453125 11.648438 57.664062 12.015625 C 57.878906 12.382812 57.753906 12.851562 57.386719 13.0625 Z M 54.335938 14.824219 " fill-opacity="1" fill-rule="evenodd"/></g><g clip-path="url(#70faf7be78)"><g transform="matrix(1, 0, 0, 1, 30, 37)"><g clip-path="url(#b00b31ebbf)"><g clip-path="url(#b67d0cd944)"><path fill="#0a2a4e" d="M 0.25 0.5 L 14.734375 0.5 L 14.734375 13.695312 L 0.25 13.695312 Z M 0.25 0.5 " fill-opacity="1" fill-rule="nonzero"/></g></g></g></g></svg>