<svg xmlns="http://www.w3.org/2000/svg" xmlns:xlink="http://www.w3.org/1999/xlink" width="100" zoomAndPan="magnify" viewBox="0 0 75 74.999997" height="100" preserveAspectRatio="xMidYMid meet" version="1.0"><defs><clipPath id="840c94e00f"><path d="M 37.5 0 C 16.789062 0 0 16.789062 0 37.5 C 0 58.210938 16.789062 75 37.5 75 C 58.210938 75 75 58.210938 75 37.5 C 75 16.789062 58.210938 0 37.5 0 Z M 37.5 0 " clip-rule="nonzero"/></clipPath><clipPath id="710895043b"><path d="M 0 0 L 75 0 L 75 75 L 0 75 Z M 0 0 " clip-rule="nonzero"/></clipPath><clipPath id="9f3b2e1584"><path d="M 37.5 0 C 16.789062 0 0 16.789062 0 37.5 C 0 58.210938 16.789062 75 37.5 75 C 58.210938 75 75 58.210938 75 37.5 C 75 16.789062 58.210938 0 37.5 0 Z M 37.5 0 " clip-rule="nonzero"/></clipPath><clipPath id="24b3da509e"><rect x="0" width="75" y="0" height="75"/></clipPath><clipPath id="de27e250a7"><path d="M 23.273438 30.386719 L 51.773438 30.386719 L 51.773438 44.636719 L 23.273438 44.636719 Z M 23.273438 30.386719 " clip-rule="nonzero"/></clipPath><clipPath id="a8212872e6"><path d="M 0.273438 0.386719 L 28.726562 0.386719 L 28.726562 14.636719 L 0.273438 14.636719 Z M 0.273438 0.386719 " clip-rule="nonzero"/></clipPath><clipPath id="3f673e490b"><rect x="0" width="29" y="0" height="15"/></clipPath></defs><g clip-path="url(#840c94e00f)"><g transform="matrix(1, 0, 0, 1, 0, -0.000000000000001893)"><g clip-path="url(#24b3da509e)"><g clip-path="url(#710895043b)"><g clip-path="url(#9f3b2e1584)"><rect x="-16.5" width="108" fill="#000000" height="107.999996" y="-16.499999" fill-opacity="1"/></g></g></g></g></g><g clip-path="url(#de27e250a7)"><g transform="matrix(1, 0, 0, 1, 23, 30)"><g clip-path="url(#3f673e490b)"><g clip-path="url(#a8212872e6)"><path fill="#ffffff" d="M 8.648438 12.914062 L 4.410156 8.679688 L 28.726562 8.679688 L 28.726562 6.316406 L 4.410156 6.316406 L 8.644531 2.082031 L 6.976562 0.414062 L 0.722656 6.664062 C 0.261719 7.125 0.261719 7.875 0.722656 8.335938 L 6.976562 14.585938 Z M 8.648438 12.914062 " fill-opacity="1" fill-rule="nonzero"/></g></g></g></g></svg>