<svg xmlns="http://www.w3.org/2000/svg" xmlns:xlink="http://www.w3.org/1999/xlink" width="100" zoomAndPan="magnify" viewBox="0 0 75 74.999997" height="100" preserveAspectRatio="xMidYMid meet" version="1.0"><defs><clipPath id="47b8eeede2"><path d="M 37.5 0 C 16.789062 0 0 16.789062 0 37.5 C 0 58.210938 16.789062 75 37.5 75 C 58.210938 75 75 58.210938 75 37.5 C 75 16.789062 58.210938 0 37.5 0 Z M 37.5 0 " clip-rule="nonzero"/></clipPath><clipPath id="38d6eaef1f"><path d="M 0 0 L 75 0 L 75 75 L 0 75 Z M 0 0 " clip-rule="nonzero"/></clipPath><clipPath id="3d22d61856"><path d="M 37.5 0 C 16.789062 0 0 16.789062 0 37.5 C 0 58.210938 16.789062 75 37.5 75 C 58.210938 75 75 58.210938 75 37.5 C 75 16.789062 58.210938 0 37.5 0 Z M 37.5 0 " clip-rule="nonzero"/></clipPath><clipPath id="c1e64b9dc4"><rect x="0" width="75" y="0" height="75"/></clipPath><clipPath id="f01683e963"><path d="M 23.273438 30.386719 L 51.773438 30.386719 L 51.773438 44.636719 L 23.273438 44.636719 Z M 23.273438 30.386719 " clip-rule="nonzero"/></clipPath></defs><g clip-path="url(#47b8eeede2)"><g transform="matrix(1, 0, 0, 1, 0, -0.000000000000001893)"><g clip-path="url(#c1e64b9dc4)"><g clip-path="url(#38d6eaef1f)"><g clip-path="url(#3d22d61856)"><rect x="-16.5" width="108" fill="#000000" height="107.999996" y="-16.499999" fill-opacity="1"/></g></g></g></g></g><g clip-path="url(#f01683e963)"><path fill="#ffffff" d="M 43.351562 42.914062 L 47.585938 38.679688 L 23.273438 38.679688 L 23.273438 36.316406 L 47.585938 36.316406 L 43.351562 32.082031 L 45.023438 30.414062 L 51.273438 36.664062 C 51.734375 37.125 51.734375 37.875 51.273438 38.335938 L 45.019531 44.585938 Z M 43.351562 42.914062 " fill-opacity="1" fill-rule="nonzero"/></g></svg>