<svg xmlns="http://www.w3.org/2000/svg" xmlns:xlink="http://www.w3.org/1999/xlink" width="100" zoomAndPan="magnify" viewBox="0 0 75 74.999997" height="100" preserveAspectRatio="xMidYMid meet" version="1.0"><defs><clipPath id="6c8d170469"><path d="M 74.4375 39.882812 L 74.796875 39.882812 L 74.796875 40.214844 L 74.4375 40.214844 Z M 74.4375 39.882812 " clip-rule="nonzero"/></clipPath><clipPath id="5a836b206a"><path d="M 74.773438 40.125 C 74.101562 40.351562 74.699219 39.898438 74.699219 39.898438 " clip-rule="nonzero"/></clipPath><clipPath id="c5019fe371"><path d="M 0.4375 0.882812 L 0.796875 0.882812 L 0.796875 1.214844 L 0.4375 1.214844 Z M 0.4375 0.882812 " clip-rule="nonzero"/></clipPath><clipPath id="bbb13fe4ad"><path d="M 0.773438 1.125 C 0.101562 1.351562 0.699219 0.898438 0.699219 0.898438 " clip-rule="nonzero"/></clipPath><clipPath id="a3f518976f"><rect x="0" width="1" y="0" height="2"/></clipPath><clipPath id="a6e09fefe8"><path d="M 40.390625 38.230469 L 40.746094 38.230469 L 40.746094 38.5625 L 40.390625 38.5625 Z M 40.390625 38.230469 " clip-rule="nonzero"/></clipPath><clipPath id="d085eb18e7"><path d="M 40.726562 38.476562 C 40.050781 38.699219 40.648438 38.25 40.648438 38.25 " clip-rule="nonzero"/></clipPath><clipPath id="9da34817ae"><path d="M 0.390625 0.230469 L 0.746094 0.230469 L 0.746094 0.5625 L 0.390625 0.5625 Z M 0.390625 0.230469 " clip-rule="nonzero"/></clipPath><clipPath id="0878f4882d"><path d="M 0.726562 0.476562 C 0.0507812 0.699219 0.648438 0.25 0.648438 0.25 " clip-rule="nonzero"/></clipPath><clipPath id="201e42079c"><rect x="0" width="1" y="0" height="1"/></clipPath></defs><g clip-path="url(#6c8d170469)"><g clip-path="url(#5a836b206a)"><g transform="matrix(1, 0, 0, 1, 74, 39)"><g clip-path="url(#a3f518976f)"><g clip-path="url(#c5019fe371)"><g clip-path="url(#bbb13fe4ad)"><rect x="-90.5" width="108" fill="#0571d3" height="107.999996" y="-55.499999" fill-opacity="1"/></g></g></g></g></g></g><g clip-path="url(#a6e09fefe8)"><g clip-path="url(#d085eb18e7)"><g transform="matrix(1, 0, 0, 1, 40, 38)"><g clip-path="url(#201e42079c)"><g clip-path="url(#9da34817ae)"><g clip-path="url(#0878f4882d)"><rect x="-56.5" width="108" fill="#0571d3" height="107.999996" y="-54.499999" fill-opacity="1"/></g></g></g></g></g></g><path fill="#ffffff" d="M 36.316406 99.234375 C 70.164062 99.234375 97.773438 71.632812 97.773438 37.777344 C 97.773438 3.925781 70.164062 -23.683594 36.316406 -23.683594 C 2.464844 -23.683594 -25.144531 3.925781 -25.144531 37.777344 C -25.144531 71.632812 2.464844 99.234375 36.316406 99.234375 Z M 36.316406 99.234375 " fill-opacity="1" fill-rule="evenodd"/><path fill="#194274" d="M 40.398438 53.160156 C 44.433594 53.457031 48.347656 52.164062 51.410156 49.519531 C 54.476562 46.878906 56.328125 43.199219 56.625 39.164062 C 56.925781 35.128906 55.632812 31.21875 52.988281 28.152344 C 50.34375 25.085938 46.667969 23.234375 42.628906 22.9375 C 42.25 22.90625 41.871094 22.894531 41.492188 22.894531 C 37.863281 22.894531 34.394531 24.179688 31.617188 26.570312 C 25.292969 32.027344 24.582031 41.617188 30.039062 47.945312 C 32.683594 51.011719 36.359375 52.863281 40.398438 53.160156 Z M 29.472656 37.160156 C 29.710938 33.945312 31.1875 31.011719 33.628906 28.90625 C 38.671875 24.558594 46.308594 25.121094 50.65625 30.164062 C 55.003906 35.203125 54.441406 42.84375 49.398438 47.191406 C 47.121094 49.152344 44.316406 50.117188 41.523438 50.117188 C 38.128906 50.117188 34.757812 48.699219 32.375 45.933594 C 30.265625 43.492188 29.238281 40.375 29.472656 37.160156 Z M 29.472656 37.160156 " fill-opacity="1" fill-rule="nonzero"/><path fill="#194274" d="M 42.476562 38.046875 C 42.476562 37.519531 42.042969 37.085938 41.515625 37.085938 C 40.984375 37.085938 40.554688 37.519531 40.554688 38.046875 C 40.554688 38.578125 40.984375 39.007812 41.515625 39.007812 C 42.042969 39.007812 42.476562 38.578125 42.476562 38.046875 Z M 42.476562 38.046875 " fill-opacity="1" fill-rule="nonzero"/><path fill="#194274" d="M 23.679688 56.210938 C 23.667969 56.199219 23.65625 56.1875 23.644531 56.175781 C 23.628906 56.160156 23.621094 56.144531 23.609375 56.132812 L 20.628906 52.679688 C 20.617188 52.667969 20.609375 52.660156 20.597656 52.648438 C 20.589844 52.636719 20.582031 52.625 20.574219 52.617188 L 20.035156 51.992188 C 20.03125 51.988281 20.03125 51.988281 20.03125 51.988281 C 20.011719 51.96875 19.984375 51.957031 19.957031 51.957031 C 19.933594 51.957031 19.910156 51.964844 19.890625 51.980469 L 6.421875 63.601562 C 6.378906 63.636719 6.375 63.699219 6.414062 63.742188 L 10.605469 68.601562 C 10.621094 68.621094 10.644531 68.632812 10.671875 68.632812 C 10.691406 68.636719 10.71875 68.632812 10.742188 68.613281 L 24.21875 56.992188 C 24.257812 56.957031 24.261719 56.886719 24.226562 56.847656 Z M 23.679688 56.210938 " fill-opacity="1" fill-rule="nonzero"/><path fill="#194274" d="M 28.453125 49.3125 C 28.117188 48.917969 27.800781 48.515625 27.503906 48.101562 L 22.871094 52.078125 L 24.546875 54.015625 L 29.136719 50.054688 C 28.902344 49.816406 28.675781 49.566406 28.453125 49.3125 Z M 28.453125 49.3125 " fill-opacity="1" fill-rule="nonzero"/><path fill="#194274" d="M 50.617188 7.734375 L 44.894531 7.734375 C 44.558594 7.734375 44.238281 7.570312 44.042969 7.292969 C 43.847656 7.019531 43.796875 6.664062 43.910156 6.34375 C 44 6.085938 44.046875 5.808594 44.046875 5.527344 C 44.046875 4.128906 42.910156 2.992188 41.515625 2.992188 C 40.117188 2.992188 38.980469 4.128906 38.980469 5.527344 C 38.980469 5.800781 39.027344 6.078125 39.121094 6.34375 C 39.230469 6.664062 39.179688 7.019531 38.984375 7.292969 C 38.789062 7.570312 38.472656 7.734375 38.132812 7.734375 L 32.410156 7.734375 C 31.269531 7.734375 30.339844 8.664062 30.339844 9.808594 L 30.339844 11.882812 L 52.691406 11.882812 L 52.691406 9.808594 C 52.691406 8.664062 51.761719 7.734375 50.617188 7.734375 Z M 50.617188 7.734375 " fill-opacity="1" fill-rule="nonzero"/><path fill="#0a2a4e" d="M 41.523438 50.117188 C 44.316406 50.117188 47.121094 49.152344 49.398438 47.191406 C 54.441406 42.84375 55.003906 35.203125 50.65625 30.164062 C 46.308594 25.121094 38.671875 24.558594 33.628906 28.90625 C 31.1875 31.011719 29.710938 33.945312 29.472656 37.160156 C 29.238281 40.375 30.265625 43.492188 32.375 45.933594 C 34.757812 48.699219 38.128906 50.117188 41.523438 50.117188 Z M 31.558594 37.3125 C 31.753906 34.65625 32.976562 32.230469 34.996094 30.492188 C 36.878906 28.867188 39.199219 28.070312 41.507812 28.070312 C 44.3125 28.070312 47.101562 29.242188 49.074219 31.527344 C 52.667969 35.695312 52.203125 42.011719 48.035156 45.605469 C 43.867188 49.203125 37.550781 48.734375 33.957031 44.570312 C 32.214844 42.546875 31.363281 39.972656 31.558594 37.3125 Z M 31.558594 37.3125 " fill-opacity="1" fill-rule="nonzero"/><path fill="#0a2a4e" d="M 50.003906 38.808594 C 50.214844 38.613281 50.335938 38.335938 50.335938 38.046875 C 50.335938 37.761719 50.214844 37.484375 50.003906 37.285156 C 47.699219 35.121094 44.683594 33.925781 41.515625 33.925781 C 38.347656 33.925781 35.332031 35.121094 33.023438 37.285156 C 32.816406 37.484375 32.695312 37.761719 32.695312 38.046875 C 32.695312 38.335938 32.816406 38.613281 33.023438 38.808594 C 35.332031 40.976562 38.347656 42.171875 41.515625 42.171875 C 44.683594 42.171875 47.699219 40.976562 50.003906 38.808594 Z M 47.664062 38.046875 C 46.574219 38.859375 45.339844 39.441406 44.03125 39.769531 C 44.367188 39.277344 44.566406 38.6875 44.566406 38.046875 C 44.566406 37.410156 44.367188 36.816406 44.03125 36.328125 C 45.339844 36.65625 46.574219 37.238281 47.664062 38.046875 Z M 38.996094 39.769531 C 37.6875 39.441406 36.457031 38.859375 35.367188 38.046875 C 36.457031 37.238281 37.6875 36.65625 38.996094 36.328125 C 38.660156 36.816406 38.464844 37.410156 38.464844 38.046875 C 38.464844 38.6875 38.660156 39.277344 38.996094 39.769531 Z M 40.554688 38.046875 C 40.554688 37.519531 40.984375 37.085938 41.515625 37.085938 C 42.042969 37.085938 42.476562 37.519531 42.476562 38.046875 C 42.476562 38.578125 42.042969 39.007812 41.515625 39.007812 C 40.984375 39.007812 40.554688 38.578125 40.554688 38.046875 Z M 40.554688 38.046875 " fill-opacity="1" fill-rule="nonzero"/><path fill="#0a2a4e" d="M 25.90625 55.605469 L 30.691406 51.476562 C 33.394531 53.667969 36.699219 54.984375 40.246094 55.246094 C 40.675781 55.277344 41.109375 55.292969 41.539062 55.292969 C 45.667969 55.292969 49.617188 53.828125 52.777344 51.105469 C 56.265625 48.097656 58.375 43.910156 58.710938 39.316406 C 59.050781 34.726562 57.578125 30.273438 54.570312 26.785156 C 48.363281 19.585938 37.457031 18.777344 30.253906 24.988281 C 23.996094 30.386719 22.566406 39.335938 26.378906 46.3125 L 21.496094 50.5 C 20.699219 49.707031 19.40625 49.648438 18.53125 50.394531 L 5.058594 62.015625 C 4.140625 62.800781 4.039062 64.1875 4.828125 65.105469 L 9.019531 69.964844 C 9.398438 70.410156 9.929688 70.675781 10.515625 70.71875 C 10.570312 70.722656 10.628906 70.726562 10.683594 70.726562 C 11.207031 70.726562 11.710938 70.539062 12.109375 70.195312 L 25.582031 58.574219 C 26.453125 57.824219 26.585938 56.523438 25.90625 55.605469 Z M 31.617188 26.570312 C 34.394531 24.179688 37.863281 22.894531 41.492188 22.894531 C 41.871094 22.894531 42.25 22.90625 42.628906 22.9375 C 46.667969 23.234375 50.34375 25.085938 52.988281 28.152344 C 55.632812 31.21875 56.925781 35.128906 56.625 39.164062 C 56.328125 43.199219 54.476562 46.878906 51.410156 49.519531 C 48.347656 52.164062 44.433594 53.457031 40.398438 53.160156 C 36.359375 52.863281 32.683594 51.011719 30.039062 47.945312 C 24.582031 41.617188 25.292969 32.027344 31.617188 26.570312 Z M 24.21875 56.992188 L 10.742188 68.613281 C 10.71875 68.632812 10.691406 68.636719 10.671875 68.632812 C 10.644531 68.632812 10.621094 68.621094 10.605469 68.601562 L 6.414062 63.742188 C 6.375 63.699219 6.378906 63.636719 6.421875 63.601562 L 19.890625 51.980469 C 19.910156 51.964844 19.933594 51.957031 19.957031 51.957031 C 19.984375 51.957031 20.011719 51.96875 20.03125 51.988281 C 20.03125 51.988281 20.03125 51.988281 20.035156 51.992188 L 20.574219 52.617188 C 20.582031 52.625 20.589844 52.636719 20.597656 52.648438 C 20.609375 52.660156 20.617188 52.667969 20.628906 52.679688 L 23.609375 56.132812 C 23.621094 56.144531 23.628906 56.160156 23.644531 56.175781 C 23.65625 56.1875 23.667969 56.199219 23.679688 56.210938 L 24.226562 56.847656 C 24.261719 56.886719 24.257812 56.957031 24.21875 56.992188 Z M 22.871094 52.078125 L 27.503906 48.101562 C 27.800781 48.515625 28.117188 48.917969 28.453125 49.3125 C 28.675781 49.566406 28.902344 49.816406 29.136719 50.054688 L 24.546875 54.015625 Z M 22.871094 52.078125 " fill-opacity="1" fill-rule="nonzero"/><path fill="#0a2a4e" d="M 59.789062 66.246094 L 23.242188 66.246094 C 22.664062 66.246094 22.195312 66.714844 22.195312 67.292969 C 22.195312 67.867188 22.664062 68.335938 23.242188 68.335938 L 59.789062 68.335938 C 61.527344 68.335938 62.941406 66.921875 62.941406 65.183594 L 62.941406 18.792969 C 62.941406 17.054688 61.527344 15.640625 59.789062 15.640625 L 23.242188 15.640625 C 21.503906 15.640625 20.089844 17.054688 20.089844 18.792969 L 20.089844 45.226562 C 20.089844 45.804688 20.554688 46.269531 21.132812 46.269531 C 21.710938 46.269531 22.179688 45.804688 22.179688 45.226562 L 22.179688 18.792969 C 22.179688 18.207031 22.65625 17.730469 23.242188 17.730469 L 59.789062 17.730469 C 60.375 17.730469 60.851562 18.207031 60.851562 18.792969 L 60.851562 65.183594 C 60.851562 65.769531 60.375 66.246094 59.789062 66.246094 Z M 59.789062 66.246094 " fill-opacity="1" fill-rule="nonzero"/><path fill="#0a2a4e" d="M 64.621094 9.320312 L 54.753906 9.320312 C 54.511719 7.253906 52.75 5.644531 50.617188 5.644531 L 46.132812 5.644531 C 46.136719 5.605469 46.136719 5.566406 46.136719 5.527344 C 46.136719 2.976562 44.0625 0.898438 41.515625 0.898438 C 38.964844 0.898438 36.890625 2.976562 36.890625 5.527344 C 36.890625 5.566406 36.890625 5.605469 36.890625 5.644531 L 32.410156 5.644531 C 30.28125 5.644531 28.519531 7.253906 28.277344 9.320312 L 18.40625 9.320312 C 16.363281 9.320312 14.699219 10.988281 14.699219 13.03125 L 14.699219 47.347656 C 14.699219 47.921875 15.167969 48.390625 15.746094 48.390625 C 16.324219 48.390625 16.792969 47.921875 16.792969 47.347656 L 16.792969 13.03125 C 16.792969 12.140625 17.515625 11.414062 18.40625 11.414062 L 28.246094 11.414062 L 28.246094 12.925781 C 28.246094 13.503906 28.714844 13.972656 29.292969 13.972656 L 53.738281 13.972656 C 54.3125 13.972656 54.78125 13.503906 54.78125 12.925781 L 54.78125 11.414062 L 64.621094 11.414062 C 65.511719 11.414062 66.238281 12.140625 66.238281 13.03125 L 66.238281 70.945312 C 66.238281 71.835938 65.511719 72.558594 64.621094 72.558594 L 18.40625 72.558594 C 17.515625 72.558594 16.792969 71.835938 16.792969 70.945312 C 16.792969 70.367188 16.324219 69.898438 15.746094 69.898438 C 15.167969 69.898438 14.699219 70.367188 14.699219 70.945312 C 14.699219 72.988281 16.363281 74.652344 18.40625 74.652344 L 64.621094 74.652344 C 66.664062 74.652344 68.328125 72.988281 68.328125 70.945312 L 68.328125 13.03125 C 68.328125 10.988281 66.664062 9.320312 64.621094 9.320312 Z M 52.691406 11.882812 L 30.339844 11.882812 L 30.339844 9.808594 C 30.339844 8.664062 31.269531 7.734375 32.410156 7.734375 L 38.132812 7.734375 C 38.472656 7.734375 38.789062 7.570312 38.984375 7.292969 C 39.179688 7.019531 39.230469 6.664062 39.121094 6.34375 C 39.027344 6.078125 38.980469 5.800781 38.980469 5.527344 C 38.980469 4.128906 40.117188 2.992188 41.515625 2.992188 C 42.910156 2.992188 44.046875 4.128906 44.046875 5.527344 C 44.046875 5.808594 44 6.085938 43.910156 6.34375 C 43.796875 6.664062 43.847656 7.019531 44.042969 7.292969 C 44.238281 7.570312 44.558594 7.734375 44.894531 7.734375 L 50.617188 7.734375 C 51.761719 7.734375 52.691406 8.664062 52.691406 9.808594 Z M 52.691406 11.882812 " fill-opacity="1" fill-rule="nonzero"/></svg>