<svg xmlns="http://www.w3.org/2000/svg" xmlns:xlink="http://www.w3.org/1999/xlink" width="100" zoomAndPan="magnify" viewBox="0 0 75 74.999997" height="100" preserveAspectRatio="xMidYMid meet" version="1.0"><defs><clipPath id="6aeac2b2d6"><path d="M 0.46875 0 L 74.71875 0 L 74.71875 75 L 0.46875 75 Z M 0.46875 0 " clip-rule="nonzero"/></clipPath><clipPath id="f19b003a58"><path d="M 0.9375 0 L 74.4375 0 L 74.4375 74 L 0.9375 74 Z M 0.9375 0 " clip-rule="nonzero"/></clipPath></defs><g clip-path="url(#6aeac2b2d6)"><path fill="#278d46" d="M 74.714844 36.933594 C 74.714844 57.324219 58.097656 73.855469 37.597656 73.855469 C 34.597656 73.859375 31.640625 73.503906 28.726562 72.792969 C 25.8125 72.082031 23.027344 71.03125 20.367188 69.644531 C 20.355469 69.648438 20.339844 69.65625 20.324219 69.664062 L 9.136719 74.285156 C 5.632812 75.734375 2.105469 72.289062 3.492188 68.777344 L 7.523438 58.578125 C 5.230469 55.429688 3.480469 52.007812 2.277344 48.3125 C 1.074219 44.613281 0.476562 40.820312 0.480469 36.933594 C 0.480469 16.542969 17.097656 0.0117188 37.597656 0.0117188 C 58.097656 0.0117188 74.714844 16.542969 74.714844 36.933594 Z M 74.714844 36.933594 " fill-opacity="1" fill-rule="nonzero"/></g><path fill="#ffffff" d="M 69.898438 36.933594 C 69.898438 37.984375 69.847656 39.035156 69.746094 40.082031 C 69.640625 41.128906 69.484375 42.167969 69.28125 43.203125 C 69.074219 44.234375 68.816406 45.253906 68.507812 46.261719 C 68.203125 47.265625 67.847656 48.257812 67.441406 49.230469 C 67.035156 50.199219 66.585938 51.152344 66.085938 52.078125 C 65.585938 53.007812 65.042969 53.910156 64.457031 54.785156 C 63.867188 55.660156 63.238281 56.503906 62.566406 57.316406 C 61.898438 58.128906 61.1875 58.910156 60.4375 59.652344 C 59.691406 60.398438 58.910156 61.101562 58.089844 61.769531 C 57.273438 62.4375 56.425781 63.0625 55.542969 63.648438 C 54.664062 64.234375 53.757812 64.773438 52.824219 65.269531 C 51.890625 65.765625 50.9375 66.214844 49.960938 66.617188 C 48.984375 67.019531 47.988281 67.375 46.976562 67.679688 C 45.964844 67.984375 44.9375 68.242188 43.898438 68.445312 C 42.863281 68.652344 41.816406 68.804688 40.765625 68.910156 C 39.710938 69.011719 38.65625 69.0625 37.597656 69.0625 C 36.539062 69.0625 35.484375 69.011719 34.433594 68.910156 C 33.378906 68.804688 32.335938 68.652344 31.296875 68.445312 C 30.257812 68.242188 29.234375 67.984375 28.222656 67.679688 C 27.210938 67.375 26.214844 67.019531 25.238281 66.617188 C 24.261719 66.214844 23.304688 65.765625 22.371094 65.269531 C 21.4375 64.773438 20.53125 64.234375 19.652344 63.648438 C 18.773438 63.0625 17.925781 62.4375 17.105469 61.769531 C 16.289062 61.101562 15.507812 60.398438 14.757812 59.652344 C 14.011719 58.910156 13.300781 58.128906 12.628906 57.316406 C 11.957031 56.503906 11.328125 55.660156 10.742188 54.785156 C 10.152344 53.910156 9.609375 53.007812 9.109375 52.078125 C 8.613281 51.152344 8.160156 50.199219 7.753906 49.230469 C 7.351562 48.257812 6.996094 47.265625 6.6875 46.261719 C 6.378906 45.253906 6.125 44.234375 5.917969 43.203125 C 5.710938 42.167969 5.554688 41.128906 5.453125 40.082031 C 5.347656 39.035156 5.296875 37.984375 5.296875 36.933594 C 5.296875 35.878906 5.347656 34.832031 5.453125 33.785156 C 5.554688 32.738281 5.710938 31.695312 5.917969 30.664062 C 6.125 29.632812 6.378906 28.613281 6.6875 27.605469 C 6.996094 26.597656 7.351562 25.609375 7.753906 24.636719 C 8.160156 23.664062 8.613281 22.714844 9.109375 21.785156 C 9.609375 20.859375 10.152344 19.957031 10.742188 19.082031 C 11.328125 18.207031 11.957031 17.363281 12.628906 16.550781 C 13.300781 15.734375 14.011719 14.957031 14.757812 14.214844 C 15.507812 13.46875 16.289062 12.761719 17.105469 12.09375 C 17.925781 11.429688 18.773438 10.800781 19.652344 10.21875 C 20.53125 9.632812 21.4375 9.09375 22.371094 8.597656 C 23.304688 8.101562 24.261719 7.652344 25.238281 7.25 C 26.214844 6.84375 27.210938 6.492188 28.222656 6.1875 C 29.234375 5.878906 30.257812 5.625 31.296875 5.417969 C 32.335938 5.214844 33.378906 5.058594 34.433594 4.957031 C 35.484375 4.855469 36.539062 4.800781 37.597656 4.800781 C 38.65625 4.800781 39.710938 4.855469 40.765625 4.957031 C 41.816406 5.058594 42.863281 5.214844 43.898438 5.417969 C 44.9375 5.625 45.964844 5.878906 46.976562 6.1875 C 47.988281 6.492188 48.984375 6.84375 49.960938 7.25 C 50.9375 7.652344 51.890625 8.101562 52.824219 8.597656 C 53.757812 9.09375 54.664062 9.632812 55.542969 10.21875 C 56.425781 10.800781 57.273438 11.429688 58.089844 12.09375 C 58.910156 12.761719 59.691406 13.46875 60.4375 14.214844 C 61.1875 14.957031 61.898438 15.734375 62.566406 16.550781 C 63.238281 17.363281 63.867188 18.207031 64.457031 19.082031 C 65.042969 19.957031 65.585938 20.859375 66.085938 21.785156 C 66.585938 22.714844 67.035156 23.664062 67.441406 24.636719 C 67.847656 25.609375 68.203125 26.597656 68.507812 27.605469 C 68.816406 28.613281 69.074219 29.632812 69.28125 30.664062 C 69.484375 31.695312 69.640625 32.738281 69.746094 33.785156 C 69.847656 34.832031 69.898438 35.878906 69.898438 36.933594 Z M 69.898438 36.933594 " fill-opacity="1" fill-rule="nonzero"/><path fill="#278d46" d="M 65.375 36.933594 C 65.375 37.835938 65.332031 38.742188 65.242188 39.640625 C 65.152344 40.542969 65.019531 41.4375 64.84375 42.324219 C 64.664062 43.210938 64.445312 44.085938 64.179688 44.953125 C 63.914062 45.820312 63.609375 46.671875 63.261719 47.507812 C 62.914062 48.34375 62.523438 49.160156 62.097656 49.957031 C 61.667969 50.757812 61.199219 51.53125 60.695312 52.285156 C 60.1875 53.035156 59.648438 53.761719 59.070312 54.460938 C 58.492188 55.160156 57.882812 55.832031 57.242188 56.46875 C 56.597656 57.109375 55.921875 57.71875 55.21875 58.292969 C 54.515625 58.867188 53.789062 59.402344 53.03125 59.90625 C 52.273438 60.410156 51.496094 60.875 50.691406 61.300781 C 49.890625 61.726562 49.070312 62.113281 48.230469 62.460938 C 47.386719 62.804688 46.53125 63.109375 45.660156 63.375 C 44.792969 63.636719 43.910156 63.855469 43.019531 64.03125 C 42.125 64.207031 41.226562 64.339844 40.320312 64.429688 C 39.414062 64.519531 38.507812 64.5625 37.597656 64.5625 C 36.6875 64.5625 35.78125 64.519531 34.875 64.429688 C 33.96875 64.339844 33.070312 64.207031 32.179688 64.03125 C 31.289062 63.855469 30.40625 63.636719 29.535156 63.375 C 28.664062 63.109375 27.808594 62.804688 26.96875 62.460938 C 26.128906 62.113281 25.308594 61.726562 24.503906 61.300781 C 23.703125 60.875 22.921875 60.410156 22.167969 59.90625 C 21.410156 59.402344 20.679688 58.867188 19.976562 58.292969 C 19.273438 57.71875 18.601562 57.109375 17.957031 56.46875 C 17.3125 55.832031 16.703125 55.160156 16.125 54.460938 C 15.550781 53.761719 15.007812 53.035156 14.503906 52.285156 C 13.996094 51.53125 13.53125 50.757812 13.101562 49.957031 C 12.671875 49.160156 12.285156 48.34375 11.9375 47.507812 C 11.585938 46.671875 11.28125 45.820312 11.015625 44.953125 C 10.753906 44.085938 10.53125 43.210938 10.355469 42.324219 C 10.175781 41.4375 10.042969 40.542969 9.953125 39.640625 C 9.867188 38.742188 9.820312 37.835938 9.820312 36.933594 C 9.820312 36.027344 9.867188 35.125 9.953125 34.226562 C 10.042969 33.324219 10.175781 32.429688 10.355469 31.542969 C 10.53125 30.65625 10.753906 29.777344 11.015625 28.914062 C 11.28125 28.046875 11.585938 27.195312 11.9375 26.359375 C 12.285156 25.523438 12.671875 24.707031 13.101562 23.90625 C 13.53125 23.109375 13.996094 22.335938 14.503906 21.582031 C 15.007812 20.828125 15.550781 20.105469 16.125 19.40625 C 16.703125 18.703125 17.3125 18.035156 17.957031 17.394531 C 18.601562 16.753906 19.273438 16.148438 19.976562 15.574219 C 20.679688 15 21.410156 14.460938 22.167969 13.960938 C 22.921875 13.457031 23.703125 12.992188 24.503906 12.566406 C 25.308594 12.136719 26.128906 11.753906 26.96875 11.40625 C 27.808594 11.058594 28.664062 10.753906 29.535156 10.492188 C 30.40625 10.230469 31.289062 10.011719 32.179688 9.832031 C 33.070312 9.65625 33.96875 9.523438 34.875 9.4375 C 35.78125 9.347656 36.6875 9.300781 37.597656 9.300781 C 38.507812 9.300781 39.414062 9.347656 40.320312 9.4375 C 41.226562 9.523438 42.125 9.65625 43.019531 9.832031 C 43.910156 10.011719 44.792969 10.230469 45.660156 10.492188 C 46.53125 10.753906 47.386719 11.058594 48.230469 11.40625 C 49.070312 11.753906 49.890625 12.136719 50.691406 12.566406 C 51.496094 12.992188 52.273438 13.457031 53.03125 13.960938 C 53.789062 14.460938 54.515625 15 55.21875 15.574219 C 55.921875 16.148438 56.597656 16.753906 57.242188 17.394531 C 57.882812 18.035156 58.492188 18.703125 59.070312 19.40625 C 59.648438 20.105469 60.1875 20.828125 60.695312 21.582031 C 61.199219 22.335938 61.667969 23.109375 62.097656 23.90625 C 62.523438 24.707031 62.914062 25.523438 63.261719 26.359375 C 63.609375 27.195312 63.914062 28.046875 64.179688 28.914062 C 64.445312 29.777344 64.664062 30.65625 64.84375 31.542969 C 65.019531 32.429688 65.152344 33.324219 65.242188 34.226562 C 65.332031 35.125 65.375 36.027344 65.375 36.933594 Z M 65.375 36.933594 " fill-opacity="1" fill-rule="nonzero"/><path fill="#ffffff" d="M 34.03125 27.90625 L 32.949219 23.367188 C 32.890625 23.109375 32.800781 22.859375 32.6875 22.617188 C 32.570312 22.375 32.433594 22.152344 32.269531 21.9375 C 32.105469 21.726562 31.921875 21.535156 31.71875 21.363281 C 31.515625 21.1875 31.296875 21.039062 31.0625 20.914062 C 30.824219 20.785156 30.578125 20.683594 30.324219 20.609375 C 30.066406 20.535156 29.804688 20.488281 29.535156 20.46875 C 29.269531 20.445312 29.003906 20.453125 28.738281 20.492188 C 28.472656 20.527344 28.214844 20.589844 27.960938 20.679688 L 25.46875 21.574219 C 25.0625 21.71875 24.691406 21.925781 24.355469 22.199219 C 24.023438 22.46875 23.742188 22.789062 23.515625 23.152344 C 23.289062 23.519531 23.132812 23.910156 23.039062 24.332031 C 22.949219 24.75 22.929688 25.175781 22.984375 25.601562 C 23.851562 32.621094 27.851562 49.609375 46.242188 53.339844 C 46.609375 53.414062 46.976562 53.433594 47.347656 53.402344 C 47.71875 53.367188 48.074219 53.28125 48.421875 53.144531 C 48.765625 53.007812 49.085938 52.820312 49.378906 52.589844 C 49.667969 52.359375 49.921875 52.089844 50.132812 51.789062 L 51.5625 49.730469 C 51.851562 49.320312 52.046875 48.867188 52.152344 48.375 C 52.261719 47.886719 52.269531 47.394531 52.179688 46.902344 C 52.085938 46.40625 51.90625 45.949219 51.632812 45.527344 C 51.359375 45.105469 51.015625 44.753906 50.601562 44.46875 L 50.578125 44.449219 L 47.433594 42.320312 C 47.089844 42.089844 46.722656 41.917969 46.328125 41.808594 C 45.929688 41.695312 45.527344 41.648438 45.117188 41.667969 C 44.703125 41.6875 44.304688 41.769531 43.921875 41.917969 C 43.539062 42.066406 43.1875 42.269531 42.871094 42.53125 C 42.554688 42.792969 42.207031 42.996094 41.824219 43.140625 C 41.441406 43.289062 41.046875 43.375 40.640625 43.394531 C 40.230469 43.414062 39.828125 43.371094 39.433594 43.261719 C 39.039062 43.152344 38.671875 42.984375 38.332031 42.757812 C 36.417969 41.476562 33.832031 39.351562 32.148438 36.402344 C 31.960938 36.074219 31.824219 35.722656 31.738281 35.351562 C 31.65625 34.980469 31.628906 34.605469 31.660156 34.226562 C 31.6875 33.847656 31.773438 33.480469 31.914062 33.125 C 32.054688 32.773438 32.246094 32.449219 32.484375 32.152344 L 33.292969 31.148438 C 33.664062 30.695312 33.910156 30.183594 34.039062 29.613281 C 34.171875 29.042969 34.167969 28.476562 34.03125 27.90625 Z M 34.03125 27.90625 " fill-opacity="1" fill-rule="nonzero"/><g clip-path="url(#f19b003a58)"><path fill="#278d46" d="M 74.433594 36.566406 C 74.433594 56.757812 57.984375 73.121094 37.691406 73.121094 C 34.722656 73.128906 31.792969 72.777344 28.910156 72.070312 C 26.023438 71.367188 23.265625 70.328125 20.636719 68.953125 C 20.621094 68.960938 20.605469 68.964844 20.59375 68.972656 L 9.515625 73.550781 C 6.050781 74.984375 2.554688 71.570312 3.929688 68.097656 L 7.921875 57.996094 C 5.652344 54.882812 3.917969 51.496094 2.726562 47.832031 C 1.535156 44.171875 0.945312 40.414062 0.949219 36.566406 C 0.949219 16.378906 17.398438 0.0117188 37.691406 0.0117188 C 57.984375 0.0117188 74.433594 16.378906 74.433594 36.566406 Z M 74.433594 36.566406 " fill-opacity="1" fill-rule="nonzero"/></g><path fill="#ffffff" d="M 69.667969 36.566406 C 69.667969 37.609375 69.617188 38.648438 69.515625 39.683594 C 69.410156 40.722656 69.257812 41.75 69.054688 42.773438 C 68.847656 43.796875 68.59375 44.804688 68.289062 45.800781 C 67.988281 46.800781 67.632812 47.777344 67.234375 48.742188 C 66.832031 49.703125 66.386719 50.644531 65.890625 51.5625 C 65.398438 52.480469 64.859375 53.375 64.277344 54.242188 C 63.695312 55.109375 63.074219 55.941406 62.410156 56.75 C 61.746094 57.554688 61.042969 58.324219 60.300781 59.0625 C 59.5625 59.796875 58.785156 60.496094 57.976562 61.160156 C 57.167969 61.820312 56.328125 62.4375 55.457031 63.019531 C 54.585938 63.597656 53.6875 64.132812 52.765625 64.625 C 51.84375 65.113281 50.894531 65.558594 49.929688 65.957031 C 48.960938 66.355469 47.976562 66.707031 46.972656 67.007812 C 45.972656 67.3125 44.957031 67.566406 43.929688 67.769531 C 42.902344 67.972656 41.867188 68.125 40.828125 68.226562 C 39.785156 68.328125 38.738281 68.378906 37.691406 68.378906 C 36.644531 68.378906 35.601562 68.328125 34.558594 68.226562 C 33.515625 68.125 32.480469 67.972656 31.453125 67.769531 C 30.425781 67.566406 29.414062 67.3125 28.410156 67.007812 C 27.410156 66.707031 26.421875 66.355469 25.457031 65.957031 C 24.488281 65.558594 23.542969 65.113281 22.621094 64.625 C 21.695312 64.132812 20.796875 63.597656 19.929688 63.019531 C 19.058594 62.4375 18.21875 61.820312 17.40625 61.160156 C 16.597656 60.496094 15.824219 59.796875 15.082031 59.0625 C 14.34375 58.324219 13.640625 57.554688 12.976562 56.75 C 12.3125 55.941406 11.6875 55.109375 11.105469 54.242188 C 10.523438 53.375 9.984375 52.480469 9.492188 51.5625 C 9 50.644531 8.550781 49.703125 8.152344 48.742188 C 7.75 47.777344 7.398438 46.800781 7.09375 45.800781 C 6.789062 44.804688 6.535156 43.796875 6.332031 42.773438 C 6.128906 41.75 5.972656 40.722656 5.871094 39.683594 C 5.769531 38.648438 5.71875 37.609375 5.71875 36.566406 C 5.71875 35.527344 5.769531 34.484375 5.871094 33.449219 C 5.972656 32.414062 6.128906 31.382812 6.332031 30.359375 C 6.535156 29.339844 6.789062 28.328125 7.09375 27.332031 C 7.398438 26.335938 7.75 25.355469 8.152344 24.394531 C 8.550781 23.429688 9 22.488281 9.492188 21.570312 C 9.984375 20.652344 10.523438 19.757812 11.105469 18.894531 C 11.6875 18.027344 12.3125 17.191406 12.976562 16.386719 C 13.640625 15.582031 14.34375 14.808594 15.082031 14.074219 C 15.824219 13.335938 16.597656 12.636719 17.40625 11.976562 C 18.21875 11.316406 19.058594 10.695312 19.929688 10.117188 C 20.796875 9.539062 21.695312 9.003906 22.621094 8.511719 C 23.542969 8.019531 24.488281 7.574219 25.457031 7.175781 C 26.421875 6.777344 27.410156 6.425781 28.410156 6.125 C 29.414062 5.824219 30.425781 5.570312 31.453125 5.367188 C 32.480469 5.164062 33.515625 5.011719 34.558594 4.910156 C 35.601562 4.804688 36.644531 4.753906 37.691406 4.753906 C 38.738281 4.753906 39.785156 4.804688 40.828125 4.910156 C 41.867188 5.011719 42.902344 5.164062 43.929688 5.367188 C 44.957031 5.570312 45.972656 5.824219 46.972656 6.125 C 47.976562 6.425781 48.960938 6.777344 49.929688 7.175781 C 50.894531 7.574219 51.84375 8.019531 52.765625 8.511719 C 53.6875 9.003906 54.585938 9.539062 55.457031 10.117188 C 56.328125 10.695312 57.167969 11.316406 57.976562 11.976562 C 58.785156 12.636719 59.5625 13.335938 60.300781 14.074219 C 61.042969 14.808594 61.746094 15.582031 62.410156 16.386719 C 63.074219 17.191406 63.695312 18.027344 64.277344 18.894531 C 64.859375 19.757812 65.398438 20.652344 65.890625 21.570312 C 66.386719 22.488281 66.832031 23.429688 67.234375 24.394531 C 67.632812 25.355469 67.988281 26.335938 68.289062 27.332031 C 68.59375 28.328125 68.847656 29.339844 69.054688 30.359375 C 69.257812 31.382812 69.410156 32.414062 69.515625 33.449219 C 69.617188 34.484375 69.667969 35.527344 69.667969 36.566406 Z M 69.667969 36.566406 " fill-opacity="1" fill-rule="nonzero"/><path fill="#278d46" d="M 65.1875 36.566406 C 65.1875 37.464844 65.144531 38.355469 65.058594 39.25 C 64.96875 40.140625 64.835938 41.027344 64.660156 41.902344 C 64.484375 42.78125 64.265625 43.652344 64.003906 44.507812 C 63.742188 45.367188 63.441406 46.207031 63.097656 47.035156 C 62.75 47.863281 62.367188 48.671875 61.941406 49.464844 C 61.519531 50.253906 61.054688 51.019531 60.554688 51.765625 C 60.054688 52.511719 59.519531 53.230469 58.949219 53.921875 C 58.375 54.613281 57.773438 55.277344 57.136719 55.910156 C 56.5 56.542969 55.832031 57.144531 55.136719 57.714844 C 54.441406 58.28125 53.71875 58.816406 52.96875 59.3125 C 52.21875 59.8125 51.449219 60.269531 50.652344 60.695312 C 49.859375 61.117188 49.046875 61.5 48.214844 61.839844 C 47.382812 62.183594 46.535156 62.484375 45.675781 62.746094 C 44.8125 63.007812 43.941406 63.222656 43.058594 63.398438 C 42.171875 63.574219 41.285156 63.703125 40.386719 63.792969 C 39.492188 63.878906 38.59375 63.925781 37.691406 63.925781 C 36.792969 63.925781 35.894531 63.878906 34.996094 63.792969 C 34.101562 63.703125 33.210938 63.574219 32.328125 63.398438 C 31.445312 63.222656 30.570312 63.007812 29.710938 62.746094 C 28.847656 62.484375 28 62.183594 27.167969 61.839844 C 26.335938 61.5 25.523438 61.117188 24.730469 60.695312 C 23.9375 60.269531 23.164062 59.8125 22.414062 59.3125 C 21.667969 58.816406 20.945312 58.28125 20.25 57.714844 C 19.550781 57.144531 18.886719 56.542969 18.25 55.910156 C 17.613281 55.277344 17.007812 54.613281 16.4375 53.921875 C 15.867188 53.230469 15.328125 52.511719 14.828125 51.765625 C 14.328125 51.019531 13.867188 50.253906 13.441406 49.464844 C 13.019531 48.671875 12.632812 47.863281 12.289062 47.035156 C 11.945312 46.207031 11.640625 45.367188 11.378906 44.507812 C 11.117188 43.652344 10.898438 42.78125 10.722656 41.902344 C 10.546875 41.027344 10.417969 40.140625 10.328125 39.25 C 10.238281 38.355469 10.195312 37.464844 10.195312 36.566406 C 10.195312 35.671875 10.238281 34.777344 10.328125 33.886719 C 10.417969 32.996094 10.546875 32.109375 10.722656 31.230469 C 10.898438 30.351562 11.117188 29.484375 11.378906 28.625 C 11.640625 27.769531 11.945312 26.925781 12.289062 26.097656 C 12.632812 25.269531 13.019531 24.460938 13.441406 23.671875 C 13.867188 22.882812 14.328125 22.113281 14.828125 21.367188 C 15.328125 20.625 15.867188 19.90625 16.4375 19.210938 C 17.007812 18.519531 17.613281 17.855469 18.25 17.222656 C 18.886719 16.589844 19.550781 15.988281 20.25 15.421875 C 20.945312 14.851562 21.667969 14.320312 22.414062 13.820312 C 23.164062 13.324219 23.9375 12.863281 24.730469 12.441406 C 25.523438 12.019531 26.335938 11.636719 27.167969 11.292969 C 28 10.949219 28.847656 10.648438 29.710938 10.386719 C 30.570312 10.128906 31.445312 9.910156 32.328125 9.738281 C 33.210938 9.5625 34.101562 9.429688 34.996094 9.34375 C 35.894531 9.253906 36.792969 9.210938 37.691406 9.210938 C 38.59375 9.210938 39.492188 9.253906 40.386719 9.34375 C 41.285156 9.429688 42.171875 9.5625 43.058594 9.738281 C 43.941406 9.910156 44.8125 10.128906 45.675781 10.386719 C 46.535156 10.648438 47.382812 10.949219 48.214844 11.292969 C 49.046875 11.636719 49.859375 12.019531 50.652344 12.441406 C 51.449219 12.863281 52.21875 13.324219 52.96875 13.820312 C 53.71875 14.320312 54.441406 14.851562 55.136719 15.421875 C 55.832031 15.988281 56.5 16.589844 57.136719 17.222656 C 57.773438 17.855469 58.375 18.519531 58.949219 19.210938 C 59.519531 19.90625 60.054688 20.625 60.554688 21.367188 C 61.054688 22.113281 61.519531 22.882812 61.941406 23.671875 C 62.367188 24.460938 62.75 25.269531 63.097656 26.097656 C 63.441406 26.925781 63.742188 27.769531 64.003906 28.625 C 64.265625 29.484375 64.484375 30.351562 64.660156 31.230469 C 64.835938 32.109375 64.96875 32.996094 65.058594 33.886719 C 65.144531 34.777344 65.1875 35.671875 65.1875 36.566406 Z M 65.1875 36.566406 " fill-opacity="1" fill-rule="nonzero"/><path fill="#ffffff" d="M 34.160156 27.628906 L 33.089844 23.136719 C 33.03125 22.878906 32.941406 22.632812 32.828125 22.394531 C 32.714844 22.15625 32.578125 21.929688 32.417969 21.722656 C 32.257812 21.511719 32.074219 21.320312 31.871094 21.152344 C 31.671875 20.980469 31.453125 20.832031 31.222656 20.707031 C 30.988281 20.578125 30.742188 20.480469 30.488281 20.40625 C 30.234375 20.332031 29.976562 20.285156 29.710938 20.265625 C 29.445312 20.246094 29.183594 20.253906 28.921875 20.289062 C 28.660156 20.324219 28.402344 20.386719 28.152344 20.476562 L 25.683594 21.359375 C 25.28125 21.503906 24.917969 21.710938 24.585938 21.976562 C 24.253906 22.246094 23.976562 22.5625 23.753906 22.925781 C 23.527344 23.285156 23.371094 23.675781 23.28125 24.089844 C 23.191406 24.507812 23.171875 24.925781 23.222656 25.347656 C 24.085938 32.300781 28.042969 49.117188 46.25 52.8125 C 46.609375 52.886719 46.976562 52.90625 47.34375 52.871094 C 47.710938 52.839844 48.0625 52.753906 48.40625 52.617188 C 48.75 52.480469 49.0625 52.296875 49.351562 52.070312 C 49.640625 51.839844 49.890625 51.574219 50.097656 51.273438 L 51.515625 49.238281 C 51.800781 48.828125 51.996094 48.382812 52.101562 47.898438 C 52.207031 47.410156 52.214844 46.925781 52.125 46.4375 C 52.035156 45.949219 51.855469 45.496094 51.585938 45.078125 C 51.3125 44.660156 50.972656 44.308594 50.5625 44.027344 L 50.539062 44.011719 L 47.425781 41.902344 C 47.089844 41.671875 46.726562 41.503906 46.332031 41.394531 C 45.941406 41.285156 45.539062 41.238281 45.132812 41.257812 C 44.726562 41.273438 44.332031 41.359375 43.953125 41.503906 C 43.570312 41.648438 43.222656 41.851562 42.910156 42.109375 C 42.597656 42.367188 42.253906 42.570312 41.875 42.714844 C 41.496094 42.863281 41.105469 42.945312 40.703125 42.964844 C 40.296875 42.984375 39.898438 42.941406 39.507812 42.832031 C 39.117188 42.726562 38.753906 42.558594 38.417969 42.335938 C 36.523438 41.066406 33.960938 38.960938 32.296875 36.042969 C 32.109375 35.714844 31.976562 35.371094 31.890625 35 C 31.808594 34.632812 31.78125 34.261719 31.8125 33.886719 C 31.84375 33.511719 31.925781 33.148438 32.066406 32.796875 C 32.207031 32.449219 32.394531 32.125 32.632812 31.832031 L 33.433594 30.84375 C 33.796875 30.390625 34.042969 29.882812 34.171875 29.320312 C 34.296875 28.757812 34.296875 28.191406 34.160156 27.628906 Z M 34.160156 27.628906 " fill-opacity="1" fill-rule="nonzero"/></svg>